<?xml version="1.0" encoding="UTF-8" standalone="no"?>
<!DOCTYPE svg PUBLIC "-//W3C//DTD SVG 1.1//EN"
 "http://www.w3.org/Graphics/SVG/1.1/DTD/svg11.dtd">
<!-- Generated by graphviz version 2.40.1 (20161225.0304)
 -->
<!-- Title: oneDegreeRelationshipsDiagram Pages: 1 -->
<svg width="329pt" height="161pt"
 viewBox="0.00 0.00 329.00 160.70" xmlns="http://www.w3.org/2000/svg" xmlns:xlink="http://www.w3.org/1999/xlink">
<g id="graph0" class="graph" transform="scale(1 1) rotate(0) translate(4 156.7)">
<title>oneDegreeRelationshipsDiagram</title>
<polygon fill="#ffffff" stroke="transparent" points="-4,4 -4,-156.7 325,-156.7 325,4 -4,4"/>
<text text-anchor="middle" x="72.4936" y="-7.3" font-family="Helvetica,sans-Serif" font-size="11.00" fill="#000000">Generated by SchemaSpy</text>
<!-- tasks -->
<g id="node1" class="node">
<title>tasks</title>
<g id="a_node1"><a xlink:href="../../tables/tasks.html" xlink:title="tasks" target="_top">
<polygon fill="#ffffff" stroke="transparent" points="181,-43.7 181,-148.7 313,-148.7 313,-43.7 181,-43.7"/>
<polygon fill="#f5f5f5" stroke="transparent" points="181,-125.2 181,-148.2 313,-148.2 313,-125.2 181,-125.2"/>
<polygon fill="none" stroke="#000000" points="181,-125.2 181,-148.2 313,-148.2 313,-125.2 181,-125.2"/>
<text text-anchor="start" x="186" y="-134.3" font-family="Helvetica,sans-Serif" font-weight="bold" font-size="11.00" fill="#000000">tasks</text>
<text text-anchor="start" x="278.0437" y="-133.3" font-family="Helvetica,sans-Serif" font-size="11.00" fill="#000000">[table]</text>
<polygon fill="none" stroke="#000000" points="181,-103.2 181,-125.2 313,-125.2 313,-103.2 181,-103.2"/>
<image xlink:href="../../images/primaryKeys.png" width="11px" height="12px" preserveAspectRatio="xMinYMin meet" x="186" y="-120.2"/>
<text text-anchor="start" x="201" y="-110.3" font-family="Helvetica,sans-Serif" font-size="11.00" fill="#000000">id</text>
<polygon fill="none" stroke="#000000" points="181,-81.2 181,-103.2 313,-103.2 313,-81.2 181,-81.2"/>
<image xlink:href="../../images/foreignKeys.png" width="11px" height="12px" preserveAspectRatio="xMinYMin meet" x="186" y="-98.2"/>
<text text-anchor="start" x="201" y="-88.3" font-family="Helvetica,sans-Serif" font-size="11.00" fill="#000000">list_id</text>
<polygon fill="none" stroke="#000000" points="181,-62.2 181,-81.2 313,-81.2 313,-62.2 181,-62.2"/>
<text text-anchor="start" x="184" y="-68.3" font-family="Helvetica,sans-Serif" font-size="11.00" fill="#000000">...</text>
<polygon fill="#ffffff" stroke="transparent" points="181,-43.2 181,-62.2 228,-62.2 228,-43.2 181,-43.2"/>
<polygon fill="none" stroke="#000000" points="181,-43.2 181,-62.2 228,-62.2 228,-43.2 181,-43.2"/>
<text text-anchor="start" x="184" y="-49.3" font-family="Helvetica,sans-Serif" font-size="11.00" fill="#000000">&lt; 1</text>
<polygon fill="#ffffff" stroke="transparent" points="228,-43.2 228,-62.2 279,-62.2 279,-43.2 228,-43.2"/>
<polygon fill="none" stroke="#000000" points="228,-43.2 228,-62.2 279,-62.2 279,-43.2 228,-43.2"/>
<text text-anchor="start" x="243.6105" y="-49.3" font-family="Helvetica,sans-Serif" font-size="11.00" fill="#000000">6 rows</text>
<polygon fill="#ffffff" stroke="transparent" points="279,-43.2 279,-62.2 313,-62.2 313,-43.2 279,-43.2"/>
<polygon fill="none" stroke="#000000" points="279,-43.2 279,-62.2 313,-62.2 313,-43.2 279,-43.2"/>
<text text-anchor="start" x="294.4053" y="-49.3" font-family="Helvetica,sans-Serif" font-size="11.00" fill="#000000">1 &gt;</text>
</a>
</g>
</g>
<!-- lists -->
<g id="node2" class="node">
<title>lists</title>
<g id="a_node2"><a xlink:href="../../tables/lists.html" xlink:title="lists" target="_top">
<polygon fill="#ffffff" stroke="transparent" points="8,-38.2 8,-128.2 132,-128.2 132,-38.2 8,-38.2"/>
<polygon fill="#f5f5f5" stroke="transparent" points="10,-103.2 10,-126.2 130,-126.2 130,-103.2 10,-103.2"/>
<polygon fill="none" stroke="#000000" points="10,-103.2 10,-126.2 130,-126.2 130,-103.2 10,-103.2"/>
<text text-anchor="start" x="15" y="-112.3" font-family="Helvetica,sans-Serif" font-weight="bold" font-size="11.00" fill="#000000">lists</text>
<text text-anchor="start" x="95.0437" y="-111.3" font-family="Helvetica,sans-Serif" font-size="11.00" fill="#000000">[table]</text>
<polygon fill="none" stroke="#000000" points="10,-81.2 10,-103.2 69,-103.2 69,-81.2 10,-81.2"/>
<image xlink:href="../../images/primaryKeys.png" width="11px" height="12px" preserveAspectRatio="xMinYMin meet" x="15" y="-98.2"/>
<text text-anchor="start" x="35" y="-88.3" font-family="Helvetica,sans-Serif" font-size="11.00" fill="#000000">id</text>
<polygon fill="none" stroke="#000000" points="69,-81.2 69,-103.2 130,-103.2 130,-81.2 69,-81.2"/>
<text text-anchor="start" x="72" y="-88.9" font-family="Helvetica,sans-Serif" font-size="11.00" fill="#000000">serial[10]</text>
<polygon fill="#ffffff" stroke="transparent" points="10,-59.2 10,-81.2 69,-81.2 69,-59.2 10,-59.2"/>
<polygon fill="none" stroke="#000000" points="10,-59.2 10,-81.2 69,-81.2 69,-59.2 10,-59.2"/>
<text text-anchor="start" x="35" y="-66.3" font-family="Helvetica,sans-Serif" font-size="11.00" fill="#000000">title</text>
<polygon fill="none" stroke="#000000" points="69,-59.2 69,-81.2 130,-81.2 130,-59.2 69,-59.2"/>
<text text-anchor="start" x="71.994" y="-66.9" font-family="Helvetica,sans-Serif" font-size="11.00" fill="#000000">varchar[25]</text>
<polygon fill="#ffffff" stroke="transparent" points="10,-40.2 10,-59.2 31,-59.2 31,-40.2 10,-40.2"/>
<polygon fill="none" stroke="#000000" points="10,-40.2 10,-59.2 31,-59.2 31,-40.2 10,-40.2"/>
<text text-anchor="start" x="12.7027" y="-46.3" font-family="Helvetica,sans-Serif" font-size="11.00" fill="#000000">&lt; 0</text>
<polygon fill="#ffffff" stroke="transparent" points="31,-40.2 31,-59.2 69,-59.2 69,-40.2 31,-40.2"/>
<polygon fill="none" stroke="#000000" points="31,-40.2 31,-59.2 69,-59.2 69,-40.2 31,-40.2"/>
<text text-anchor="start" x="33.8053" y="-46.3" font-family="Helvetica,sans-Serif" font-size="11.00" fill="#000000">3 rows</text>
<polygon fill="#ffffff" stroke="transparent" points="69,-40.2 69,-59.2 130,-59.2 130,-40.2 69,-40.2"/>
<polygon fill="none" stroke="#000000" points="69,-40.2 69,-59.2 130,-59.2 130,-40.2 69,-40.2"/>
<text text-anchor="start" x="111.4053" y="-46.3" font-family="Helvetica,sans-Serif" font-size="11.00" fill="#000000">1 &gt;</text>
<polygon fill="none" stroke="#000000" stroke-width="2" points="9,-39.2 9,-127.2 131,-127.2 131,-39.2 9,-39.2"/>
</a>
</g>
</g>
<!-- tasks&#45;&gt;lists -->
<g id="edge1" class="edge">
<title>tasks:w&#45;&gt;lists:e</title>
<path fill="none" stroke="#000000" d="M166.276,-92.2C154.2815,-92.2 146.8229,-92.2 130,-92.2"/>
<polygon fill="#000000" stroke="#000000" points="173,-92.2001 181,-95.8 177,-92.2 181,-92.2 181,-92.2 181,-92.2 177,-92.2 181,-88.6 173,-92.2001 173,-92.2001"/>
<ellipse fill="none" stroke="#000000" cx="169.8" cy="-92.2001" rx="3.2" ry="3.2"/>
</g>
</g>
</svg>
