<?xml version="1.0" encoding="UTF-8" standalone="no"?>
<!DOCTYPE svg PUBLIC "-//W3C//DTD SVG 1.1//EN"
 "http://www.w3.org/Graphics/SVG/1.1/DTD/svg11.dtd">
<!-- Generated by graphviz version 2.40.1 (20161225.0304)
 -->
<!-- Title: twoDegreesRelationshipsDiagram Pages: 1 -->
<svg width="314pt" height="223pt"
 viewBox="0.00 0.00 314.00 222.70" xmlns="http://www.w3.org/2000/svg" xmlns:xlink="http://www.w3.org/1999/xlink">
<g id="graph0" class="graph" transform="scale(1 1) rotate(0) translate(4 218.7)">
<title>twoDegreesRelationshipsDiagram</title>
<polygon fill="#ffffff" stroke="transparent" points="-4,4 -4,-218.7 310,-218.7 310,4 -4,4"/>
<text text-anchor="middle" x="72.4936" y="-7.3" font-family="Helvetica,sans-Serif" font-size="11.00" fill="#000000">Generated by SchemaSpy</text>
<!-- tasks_tag -->
<g id="node1" class="node">
<title>tasks_tag</title>
<g id="a_node1"><a xlink:href="../../tables/tasks_tag.html" xlink:title="tasks_tag" target="_top">
<polygon fill="#ffffff" stroke="transparent" points="208,-93.2 208,-179.2 298,-179.2 298,-93.2 208,-93.2"/>
<polygon fill="#f5f5f5" stroke="transparent" points="208,-156.2 208,-179.2 298,-179.2 298,-156.2 208,-156.2"/>
<polygon fill="none" stroke="#000000" points="208,-156.2 208,-179.2 298,-179.2 298,-156.2 208,-156.2"/>
<text text-anchor="start" x="212.9633" y="-165.3" font-family="Helvetica,sans-Serif" font-weight="bold" font-size="11.00" fill="#000000">tasks_tag</text>
<text text-anchor="start" x="263.5219" y="-164.3" font-family="Helvetica,sans-Serif" font-size="11.00" fill="#000000">[table]</text>
<polygon fill="none" stroke="#000000" points="208,-134.2 208,-156.2 298,-156.2 298,-134.2 208,-134.2"/>
<image xlink:href="../../images/primaryKeys.png" width="11px" height="12px" preserveAspectRatio="xMinYMin meet" x="213" y="-151.2"/>
<text text-anchor="start" x="231" y="-141.3" font-family="Helvetica,sans-Serif" font-size="11.00" fill="#000000">task_id</text>
<polygon fill="none" stroke="#000000" points="208,-112.2 208,-134.2 298,-134.2 298,-112.2 208,-112.2"/>
<image xlink:href="../../images/primaryKeys.png" width="11px" height="12px" preserveAspectRatio="xMinYMin meet" x="213" y="-129.2"/>
<text text-anchor="start" x="231" y="-119.3" font-family="Helvetica,sans-Serif" font-size="11.00" fill="#000000">tag_id</text>
<polygon fill="#ffffff" stroke="transparent" points="208,-93.2 208,-112.2 238,-112.2 238,-93.2 208,-93.2"/>
<polygon fill="none" stroke="#000000" points="208,-93.2 208,-112.2 238,-112.2 238,-93.2 208,-93.2"/>
<text text-anchor="start" x="211" y="-99.3" font-family="Helvetica,sans-Serif" font-size="11.00" fill="#000000">&lt; 2</text>
<polygon fill="#ffffff" stroke="transparent" points="238,-93.2 238,-112.2 281,-112.2 281,-93.2 238,-93.2"/>
<polygon fill="none" stroke="#000000" points="238,-93.2 238,-112.2 281,-112.2 281,-93.2 238,-93.2"/>
<text text-anchor="start" x="245.6105" y="-99.3" font-family="Helvetica,sans-Serif" font-size="11.00" fill="#000000">8 rows</text>
<polygon fill="#ffffff" stroke="transparent" points="281,-93.2 281,-112.2 298,-112.2 298,-93.2 281,-93.2"/>
<polygon fill="none" stroke="#000000" points="281,-93.2 281,-112.2 298,-112.2 298,-93.2 281,-93.2"/>
<text text-anchor="start" x="288.8862" y="-99.3" font-family="Helvetica,sans-Serif" font-size="11.00" fill="#000000"> &#160;</text>
</a>
</g>
</g>
<!-- tag -->
<g id="node2" class="node">
<title>tag</title>
<g id="a_node2"><a xlink:href="../../tables/tag.html" xlink:title="tag" target="_top">
<polygon fill="#ffffff" stroke="transparent" points="8,-38.2 8,-128.2 159,-128.2 159,-38.2 8,-38.2"/>
<polygon fill="#f5f5f5" stroke="transparent" points="10.5,-103.2 10.5,-126.2 157.5,-126.2 157.5,-103.2 10.5,-103.2"/>
<polygon fill="none" stroke="#000000" points="10.5,-103.2 10.5,-126.2 157.5,-126.2 157.5,-103.2 10.5,-103.2"/>
<text text-anchor="start" x="15.5" y="-112.3" font-family="Helvetica,sans-Serif" font-weight="bold" font-size="11.00" fill="#000000">tag</text>
<text text-anchor="start" x="122.5437" y="-111.3" font-family="Helvetica,sans-Serif" font-size="11.00" fill="#000000">[table]</text>
<polygon fill="none" stroke="#000000" points="10.5,-81.2 10.5,-103.2 96.5,-103.2 96.5,-81.2 10.5,-81.2"/>
<image xlink:href="../../images/primaryKeys.png" width="11px" height="12px" preserveAspectRatio="xMinYMin meet" x="15.5" y="-98.2"/>
<text text-anchor="start" x="30.5" y="-88.3" font-family="Helvetica,sans-Serif" font-size="11.00" fill="#000000">id</text>
<polygon fill="none" stroke="#000000" points="96.5,-81.2 96.5,-103.2 157.5,-103.2 157.5,-81.2 96.5,-81.2"/>
<text text-anchor="start" x="99.5" y="-88.9" font-family="Helvetica,sans-Serif" font-size="11.00" fill="#000000">serial[10]</text>
<polygon fill="none" stroke="#000000" points="10.5,-59.2 10.5,-81.2 96.5,-81.2 96.5,-59.2 10.5,-59.2"/>
<text text-anchor="start" x="30.5" y="-66.3" font-family="Helvetica,sans-Serif" font-size="11.00" fill="#000000">tag_value</text>
<polygon fill="none" stroke="#000000" points="96.5,-59.2 96.5,-81.2 157.5,-81.2 157.5,-59.2 96.5,-59.2"/>
<text text-anchor="start" x="99.494" y="-66.9" font-family="Helvetica,sans-Serif" font-size="11.00" fill="#000000">varchar[15]</text>
<polygon fill="#ffffff" stroke="transparent" points="10.5,-40.2 10.5,-59.2 44.5,-59.2 44.5,-40.2 10.5,-40.2"/>
<polygon fill="none" stroke="#000000" points="10.5,-40.2 10.5,-59.2 44.5,-59.2 44.5,-40.2 10.5,-40.2"/>
<text text-anchor="start" x="13.5" y="-46.3" font-family="Helvetica,sans-Serif" font-size="11.00" fill="#000000">&lt; 0</text>
<polygon fill="#ffffff" stroke="transparent" points="44.5,-40.2 44.5,-59.2 96.5,-59.2 96.5,-40.2 44.5,-40.2"/>
<polygon fill="none" stroke="#000000" points="44.5,-40.2 44.5,-59.2 96.5,-59.2 96.5,-40.2 44.5,-40.2"/>
<text text-anchor="start" x="61.1105" y="-46.3" font-family="Helvetica,sans-Serif" font-size="11.00" fill="#000000">8 rows</text>
<polygon fill="#ffffff" stroke="transparent" points="96.5,-40.2 96.5,-59.2 157.5,-59.2 157.5,-40.2 96.5,-40.2"/>
<polygon fill="none" stroke="#000000" points="96.5,-40.2 96.5,-59.2 157.5,-59.2 157.5,-40.2 96.5,-40.2"/>
<text text-anchor="start" x="138.9053" y="-46.3" font-family="Helvetica,sans-Serif" font-size="11.00" fill="#000000">1 &gt;</text>
<polygon fill="none" stroke="#000000" stroke-width="2" points="9,-39.2 9,-127.2 158,-127.2 158,-39.2 9,-39.2"/>
</a>
</g>
</g>
<!-- tasks_tag&#45;&gt;tag -->
<g id="edge1" class="edge">
<title>tasks_tag:w&#45;&gt;tag:e</title>
<path fill="none" stroke="#000000" d="M193.8267,-119.1473C181.1849,-110.7444 177.8692,-92.2 157.5,-92.2"/>
<polygon fill="#000000" stroke="#000000" points="200.3083,-121.0006 207.0103,-126.6613 204.1541,-122.1003 208,-123.2 208,-123.2 208,-123.2 204.1541,-122.1003 208.9897,-119.7387 200.3083,-121.0006 200.3083,-121.0006"/>
<ellipse fill="none" stroke="#000000" cx="197.2316" cy="-120.1208" rx="3.2" ry="3.2"/>
</g>
<!-- tasks -->
<g id="node3" class="node">
<title>tasks</title>
<g id="a_node3"><a xlink:href="../../tables/tasks.html" xlink:title="tasks" target="_top">
<polygon fill="#ffffff" stroke="transparent" points="43.5,-149.7 43.5,-210.7 123.5,-210.7 123.5,-149.7 43.5,-149.7"/>
<polygon fill="#f5f5f5" stroke="transparent" points="43.5,-187.2 43.5,-210.2 123.5,-210.2 123.5,-187.2 43.5,-187.2"/>
<polygon fill="none" stroke="#000000" points="43.5,-187.2 43.5,-210.2 123.5,-210.2 123.5,-187.2 43.5,-187.2"/>
<text text-anchor="start" x="48.5" y="-196.3" font-family="Helvetica,sans-Serif" font-weight="bold" font-size="11.00" fill="#000000">tasks</text>
<text text-anchor="start" x="88.5437" y="-195.3" font-family="Helvetica,sans-Serif" font-size="11.00" fill="#000000">[table]</text>
<polygon fill="none" stroke="#000000" points="43.5,-168.2 43.5,-187.2 123.5,-187.2 123.5,-168.2 43.5,-168.2"/>
<text text-anchor="start" x="46.5" y="-174.3" font-family="Helvetica,sans-Serif" font-size="11.00" fill="#000000">...</text>
<polygon fill="#ffffff" stroke="transparent" points="43.5,-149.2 43.5,-168.2 64.5,-168.2 64.5,-149.2 43.5,-149.2"/>
<polygon fill="none" stroke="#000000" points="43.5,-149.2 43.5,-168.2 64.5,-168.2 64.5,-149.2 43.5,-149.2"/>
<text text-anchor="start" x="46.2027" y="-155.3" font-family="Helvetica,sans-Serif" font-size="11.00" fill="#000000">&lt; 1</text>
<polygon fill="#ffffff" stroke="transparent" points="64.5,-149.2 64.5,-168.2 102.5,-168.2 102.5,-149.2 64.5,-149.2"/>
<polygon fill="none" stroke="#000000" points="64.5,-149.2 64.5,-168.2 102.5,-168.2 102.5,-149.2 64.5,-149.2"/>
<text text-anchor="start" x="67.3053" y="-155.3" font-family="Helvetica,sans-Serif" font-size="11.00" fill="#000000">6 rows</text>
<polygon fill="#ffffff" stroke="transparent" points="102.5,-149.2 102.5,-168.2 123.5,-168.2 123.5,-149.2 102.5,-149.2"/>
<polygon fill="none" stroke="#000000" points="102.5,-149.2 102.5,-168.2 123.5,-168.2 123.5,-149.2 102.5,-149.2"/>
<text text-anchor="start" x="105.2027" y="-155.3" font-family="Helvetica,sans-Serif" font-size="11.00" fill="#000000">1 &gt;</text>
</a>
</g>
</g>
<!-- tasks_tag&#45;&gt;tasks -->
<g id="edge2" class="edge">
<title>tasks_tag:w&#45;&gt;tasks:e</title>
<path fill="none" stroke="#000000" d="M193.3623,-146.8309C166.0253,-153.3519 158.1679,-177.2 123.5,-177.2"/>
<polygon fill="#000000" stroke="#000000" points="200.0492,-146.0859 208.3987,-148.7779 204.0246,-145.6429 208,-145.2 208,-145.2 208,-145.2 204.0246,-145.6429 207.6013,-141.6221 200.0492,-146.0859 200.0492,-146.0859"/>
<ellipse fill="none" stroke="#000000" cx="196.8689" cy="-146.4403" rx="3.2" ry="3.2"/>
</g>
</g>
</svg>
