<?xml version="1.0" encoding="UTF-8" standalone="no"?>
<!DOCTYPE svg PUBLIC "-//W3C//DTD SVG 1.1//EN"
 "http://www.w3.org/Graphics/SVG/1.1/DTD/svg11.dtd">
<!-- Generated by graphviz version 2.40.1 (20161225.0304)
 -->
<!-- Title: oneDegreeRelationshipsDiagram Pages: 1 -->
<svg width="314pt" height="160pt"
 viewBox="0.00 0.00 314.00 160.20" xmlns="http://www.w3.org/2000/svg" xmlns:xlink="http://www.w3.org/1999/xlink">
<g id="graph0" class="graph" transform="scale(1 1) rotate(0) translate(4 156.2)">
<title>oneDegreeRelationshipsDiagram</title>
<polygon fill="#ffffff" stroke="transparent" points="-4,4 -4,-156.2 310,-156.2 310,4 -4,4"/>
<text text-anchor="middle" x="72.4936" y="-7.3" font-family="Helvetica,sans-Serif" font-size="11.00" fill="#000000">Generated by SchemaSpy</text>
<!-- tasks_tag -->
<g id="node1" class="node">
<title>tasks_tag</title>
<g id="a_node1"><a xlink:href="../../tables/tasks_tag.html" xlink:title="tasks_tag" target="_top">
<polygon fill="#ffffff" stroke="transparent" points="208,-62.2 208,-148.2 298,-148.2 298,-62.2 208,-62.2"/>
<polygon fill="#f5f5f5" stroke="transparent" points="208,-125.2 208,-148.2 298,-148.2 298,-125.2 208,-125.2"/>
<polygon fill="none" stroke="#000000" points="208,-125.2 208,-148.2 298,-148.2 298,-125.2 208,-125.2"/>
<text text-anchor="start" x="212.9633" y="-134.3" font-family="Helvetica,sans-Serif" font-weight="bold" font-size="11.00" fill="#000000">tasks_tag</text>
<text text-anchor="start" x="263.5219" y="-133.3" font-family="Helvetica,sans-Serif" font-size="11.00" fill="#000000">[table]</text>
<polygon fill="none" stroke="#000000" points="208,-103.2 208,-125.2 298,-125.2 298,-103.2 208,-103.2"/>
<image xlink:href="../../images/primaryKeys.png" width="11px" height="12px" preserveAspectRatio="xMinYMin meet" x="213" y="-120.2"/>
<text text-anchor="start" x="231" y="-110.3" font-family="Helvetica,sans-Serif" font-size="11.00" fill="#000000">task_id</text>
<polygon fill="none" stroke="#000000" points="208,-81.2 208,-103.2 298,-103.2 298,-81.2 208,-81.2"/>
<image xlink:href="../../images/primaryKeys.png" width="11px" height="12px" preserveAspectRatio="xMinYMin meet" x="213" y="-98.2"/>
<text text-anchor="start" x="231" y="-88.3" font-family="Helvetica,sans-Serif" font-size="11.00" fill="#000000">tag_id</text>
<polygon fill="#ffffff" stroke="transparent" points="208,-62.2 208,-81.2 238,-81.2 238,-62.2 208,-62.2"/>
<polygon fill="none" stroke="#000000" points="208,-62.2 208,-81.2 238,-81.2 238,-62.2 208,-62.2"/>
<text text-anchor="start" x="211" y="-68.3" font-family="Helvetica,sans-Serif" font-size="11.00" fill="#000000">&lt; 2</text>
<polygon fill="#ffffff" stroke="transparent" points="238,-62.2 238,-81.2 281,-81.2 281,-62.2 238,-62.2"/>
<polygon fill="none" stroke="#000000" points="238,-62.2 238,-81.2 281,-81.2 281,-62.2 238,-62.2"/>
<text text-anchor="start" x="245.6105" y="-68.3" font-family="Helvetica,sans-Serif" font-size="11.00" fill="#000000">8 rows</text>
<polygon fill="#ffffff" stroke="transparent" points="281,-62.2 281,-81.2 298,-81.2 298,-62.2 281,-62.2"/>
<polygon fill="none" stroke="#000000" points="281,-62.2 281,-81.2 298,-81.2 298,-62.2 281,-62.2"/>
<text text-anchor="start" x="288.8862" y="-68.3" font-family="Helvetica,sans-Serif" font-size="11.00" fill="#000000"> &#160;</text>
</a>
</g>
</g>
<!-- tag -->
<g id="node2" class="node">
<title>tag</title>
<g id="a_node2"><a xlink:href="../../tables/tag.html" xlink:title="tag" target="_top">
<polygon fill="#ffffff" stroke="transparent" points="8,-38.2 8,-128.2 159,-128.2 159,-38.2 8,-38.2"/>
<polygon fill="#f5f5f5" stroke="transparent" points="10.5,-103.2 10.5,-126.2 157.5,-126.2 157.5,-103.2 10.5,-103.2"/>
<polygon fill="none" stroke="#000000" points="10.5,-103.2 10.5,-126.2 157.5,-126.2 157.5,-103.2 10.5,-103.2"/>
<text text-anchor="start" x="15.5" y="-112.3" font-family="Helvetica,sans-Serif" font-weight="bold" font-size="11.00" fill="#000000">tag</text>
<text text-anchor="start" x="122.5437" y="-111.3" font-family="Helvetica,sans-Serif" font-size="11.00" fill="#000000">[table]</text>
<polygon fill="none" stroke="#000000" points="10.5,-81.2 10.5,-103.2 96.5,-103.2 96.5,-81.2 10.5,-81.2"/>
<image xlink:href="../../images/primaryKeys.png" width="11px" height="12px" preserveAspectRatio="xMinYMin meet" x="15.5" y="-98.2"/>
<text text-anchor="start" x="30.5" y="-88.3" font-family="Helvetica,sans-Serif" font-size="11.00" fill="#000000">id</text>
<polygon fill="none" stroke="#000000" points="96.5,-81.2 96.5,-103.2 157.5,-103.2 157.5,-81.2 96.5,-81.2"/>
<text text-anchor="start" x="99.5" y="-88.9" font-family="Helvetica,sans-Serif" font-size="11.00" fill="#000000">serial[10]</text>
<polygon fill="none" stroke="#000000" points="10.5,-59.2 10.5,-81.2 96.5,-81.2 96.5,-59.2 10.5,-59.2"/>
<text text-anchor="start" x="30.5" y="-66.3" font-family="Helvetica,sans-Serif" font-size="11.00" fill="#000000">tag_value</text>
<polygon fill="none" stroke="#000000" points="96.5,-59.2 96.5,-81.2 157.5,-81.2 157.5,-59.2 96.5,-59.2"/>
<text text-anchor="start" x="99.494" y="-66.9" font-family="Helvetica,sans-Serif" font-size="11.00" fill="#000000">varchar[15]</text>
<polygon fill="#ffffff" stroke="transparent" points="10.5,-40.2 10.5,-59.2 44.5,-59.2 44.5,-40.2 10.5,-40.2"/>
<polygon fill="none" stroke="#000000" points="10.5,-40.2 10.5,-59.2 44.5,-59.2 44.5,-40.2 10.5,-40.2"/>
<text text-anchor="start" x="13.5" y="-46.3" font-family="Helvetica,sans-Serif" font-size="11.00" fill="#000000">&lt; 0</text>
<polygon fill="#ffffff" stroke="transparent" points="44.5,-40.2 44.5,-59.2 96.5,-59.2 96.5,-40.2 44.5,-40.2"/>
<polygon fill="none" stroke="#000000" points="44.5,-40.2 44.5,-59.2 96.5,-59.2 96.5,-40.2 44.5,-40.2"/>
<text text-anchor="start" x="61.1105" y="-46.3" font-family="Helvetica,sans-Serif" font-size="11.00" fill="#000000">8 rows</text>
<polygon fill="#ffffff" stroke="transparent" points="96.5,-40.2 96.5,-59.2 157.5,-59.2 157.5,-40.2 96.5,-40.2"/>
<polygon fill="none" stroke="#000000" points="96.5,-40.2 96.5,-59.2 157.5,-59.2 157.5,-40.2 96.5,-40.2"/>
<text text-anchor="start" x="138.9053" y="-46.3" font-family="Helvetica,sans-Serif" font-size="11.00" fill="#000000">1 &gt;</text>
<polygon fill="none" stroke="#000000" stroke-width="2" points="9,-39.2 9,-127.2 158,-127.2 158,-39.2 9,-39.2"/>
</a>
</g>
</g>
<!-- tasks_tag&#45;&gt;tag -->
<g id="edge1" class="edge">
<title>tasks_tag:w&#45;&gt;tag:e</title>
<path fill="none" stroke="#000000" d="M193.4203,-92.2C181.5435,-92.2 174.158,-92.2 157.5,-92.2"/>
<polygon fill="#000000" stroke="#000000" points="200,-92.2001 208,-95.8 204,-92.2 208,-92.2 208,-92.2 208,-92.2 204,-92.2 208,-88.6 200,-92.2001 200,-92.2001"/>
<ellipse fill="none" stroke="#000000" cx="196.8" cy="-92.2001" rx="3.2" ry="3.2"/>
</g>
</g>
</svg>
