<?xml version="1.0" encoding="UTF-8" standalone="no"?>
<!DOCTYPE svg PUBLIC "-//W3C//DTD SVG 1.1//EN"
 "http://www.w3.org/Graphics/SVG/1.1/DTD/svg11.dtd">
<!-- Generated by graphviz version 2.40.1 (20161225.0304)
 -->
<!-- Title: oneDegreeRelationshipsDiagram Pages: 1 -->
<svg width="336pt" height="259pt"
 viewBox="0.00 0.00 336.00 259.20" xmlns="http://www.w3.org/2000/svg" xmlns:xlink="http://www.w3.org/1999/xlink">
<g id="graph0" class="graph" transform="scale(1 1) rotate(0) translate(4 255.2)">
<title>oneDegreeRelationshipsDiagram</title>
<polygon fill="#ffffff" stroke="transparent" points="-4,4 -4,-255.2 332,-255.2 332,4 -4,4"/>
<text text-anchor="middle" x="72.4936" y="-7.3" font-family="Helvetica,sans-Serif" font-size="11.00" fill="#000000">Generated by SchemaSpy</text>
<!-- tasks_tag -->
<g id="node1" class="node">
<title>tasks_tag</title>
<g id="a_node1"><a xlink:href="../../tables/tasks_tag.html" xlink:title="tasks_tag" target="_top">
<polygon fill="#ffffff" stroke="transparent" points="189,-106.7 189,-196.7 320,-196.7 320,-106.7 189,-106.7"/>
<polygon fill="#f5f5f5" stroke="transparent" points="191.5,-171.7 191.5,-194.7 318.5,-194.7 318.5,-171.7 191.5,-171.7"/>
<polygon fill="none" stroke="#000000" points="191.5,-171.7 191.5,-194.7 318.5,-194.7 318.5,-171.7 191.5,-171.7"/>
<text text-anchor="start" x="196.5" y="-180.8" font-family="Helvetica,sans-Serif" font-weight="bold" font-size="11.00" fill="#000000">tasks_tag</text>
<text text-anchor="start" x="283.5437" y="-179.8" font-family="Helvetica,sans-Serif" font-size="11.00" fill="#000000">[table]</text>
<polygon fill="none" stroke="#000000" points="191.5,-149.7 191.5,-171.7 276.5,-171.7 276.5,-149.7 191.5,-149.7"/>
<image xlink:href="../../images/primaryKeys.png" width="11px" height="12px" preserveAspectRatio="xMinYMin meet" x="196.5" y="-166.7"/>
<text text-anchor="start" x="211.5" y="-156.8" font-family="Helvetica,sans-Serif" font-size="11.00" fill="#000000">task_id</text>
<polygon fill="none" stroke="#000000" points="276.5,-149.7 276.5,-171.7 318.5,-171.7 318.5,-149.7 276.5,-149.7"/>
<text text-anchor="start" x="279.4644" y="-157.4" font-family="Helvetica,sans-Serif" font-size="11.00" fill="#000000">int4[10]</text>
<polygon fill="none" stroke="#000000" points="191.5,-127.7 191.5,-149.7 276.5,-149.7 276.5,-127.7 191.5,-127.7"/>
<image xlink:href="../../images/primaryKeys.png" width="11px" height="12px" preserveAspectRatio="xMinYMin meet" x="196.5" y="-144.7"/>
<text text-anchor="start" x="211.5" y="-134.8" font-family="Helvetica,sans-Serif" font-size="11.00" fill="#000000">tag_id</text>
<polygon fill="none" stroke="#000000" points="276.5,-127.7 276.5,-149.7 318.5,-149.7 318.5,-127.7 276.5,-127.7"/>
<text text-anchor="start" x="279.4644" y="-135.4" font-family="Helvetica,sans-Serif" font-size="11.00" fill="#000000">int4[10]</text>
<polygon fill="#ffffff" stroke="transparent" points="191.5,-108.7 191.5,-127.7 225.5,-127.7 225.5,-108.7 191.5,-108.7"/>
<polygon fill="none" stroke="#000000" points="191.5,-108.7 191.5,-127.7 225.5,-127.7 225.5,-108.7 191.5,-108.7"/>
<text text-anchor="start" x="194.5" y="-114.8" font-family="Helvetica,sans-Serif" font-size="11.00" fill="#000000">&lt; 2</text>
<polygon fill="#ffffff" stroke="transparent" points="225.5,-108.7 225.5,-127.7 276.5,-127.7 276.5,-108.7 225.5,-108.7"/>
<polygon fill="none" stroke="#000000" points="225.5,-108.7 225.5,-127.7 276.5,-127.7 276.5,-108.7 225.5,-108.7"/>
<text text-anchor="start" x="241.1105" y="-114.8" font-family="Helvetica,sans-Serif" font-size="11.00" fill="#000000">8 rows</text>
<polygon fill="#ffffff" stroke="transparent" points="276.5,-108.7 276.5,-127.7 318.5,-127.7 318.5,-108.7 276.5,-108.7"/>
<polygon fill="none" stroke="#000000" points="276.5,-108.7 276.5,-127.7 318.5,-127.7 318.5,-108.7 276.5,-108.7"/>
<text text-anchor="start" x="299.9053" y="-114.8" font-family="Helvetica,sans-Serif" font-size="11.00" fill="#000000">0 &gt;</text>
<polygon fill="none" stroke="#000000" stroke-width="2" points="190,-107.7 190,-195.7 319,-195.7 319,-107.7 190,-107.7"/>
</a>
</g>
</g>
<!-- tag -->
<g id="node2" class="node">
<title>tag</title>
<g id="a_node2"><a xlink:href="../../tables/tag.html" xlink:title="tag" target="_top">
<polygon fill="#ffffff" stroke="transparent" points="31,-38.2 31,-121.2 117,-121.2 117,-38.2 31,-38.2"/>
<polygon fill="#f5f5f5" stroke="transparent" points="31,-97.7 31,-120.7 117,-120.7 117,-97.7 31,-97.7"/>
<polygon fill="none" stroke="#000000" points="31,-97.7 31,-120.7 117,-120.7 117,-97.7 31,-97.7"/>
<text text-anchor="start" x="36" y="-106.8" font-family="Helvetica,sans-Serif" font-weight="bold" font-size="11.00" fill="#000000">tag</text>
<text text-anchor="start" x="82.0437" y="-105.8" font-family="Helvetica,sans-Serif" font-size="11.00" fill="#000000">[table]</text>
<polygon fill="none" stroke="#000000" points="31,-75.7 31,-97.7 117,-97.7 117,-75.7 31,-75.7"/>
<image xlink:href="../../images/primaryKeys.png" width="11px" height="12px" preserveAspectRatio="xMinYMin meet" x="36" y="-92.7"/>
<text text-anchor="start" x="51" y="-82.8" font-family="Helvetica,sans-Serif" font-size="11.00" fill="#000000">id</text>
<polygon fill="none" stroke="#000000" points="31,-56.7 31,-75.7 117,-75.7 117,-56.7 31,-56.7"/>
<text text-anchor="start" x="34" y="-62.8" font-family="Helvetica,sans-Serif" font-size="11.00" fill="#000000">...</text>
<polygon fill="#ffffff" stroke="transparent" points="31,-37.7 31,-56.7 50,-56.7 50,-37.7 31,-37.7"/>
<polygon fill="none" stroke="#000000" points="31,-37.7 31,-56.7 50,-56.7 50,-37.7 31,-37.7"/>
<text text-anchor="start" x="34" y="-43.8" font-family="Helvetica,sans-Serif" font-size="11.00" fill="#000000"> &#160;</text>
<polygon fill="#ffffff" stroke="transparent" points="50,-37.7 50,-56.7 92,-56.7 92,-37.7 50,-37.7"/>
<polygon fill="none" stroke="#000000" points="50,-37.7 50,-56.7 92,-56.7 92,-37.7 50,-37.7"/>
<text text-anchor="start" x="56.6105" y="-43.8" font-family="Helvetica,sans-Serif" font-size="11.00" fill="#000000">8 rows</text>
<polygon fill="#ffffff" stroke="transparent" points="92,-37.7 92,-56.7 117,-56.7 117,-37.7 92,-37.7"/>
<polygon fill="none" stroke="#000000" points="92,-37.7 92,-56.7 117,-56.7 117,-37.7 92,-37.7"/>
<text text-anchor="start" x="98.4053" y="-43.8" font-family="Helvetica,sans-Serif" font-size="11.00" fill="#000000">1 &gt;</text>
</a>
</g>
</g>
<!-- tasks_tag&#45;&gt;tag -->
<g id="edge1" class="edge">
<title>tasks_tag:w&#45;&gt;tag:e</title>
<path fill="none" stroke="#000000" d="M177.3151,-136.0498C151.9604,-125.4532 151.8585,-86.7 117,-86.7"/>
<polygon fill="#000000" stroke="#000000" points="183.6361,-137.2307 190.8388,-142.2388 187.568,-137.9654 191.5,-138.7 191.5,-138.7 191.5,-138.7 187.568,-137.9654 192.1612,-135.1612 183.6361,-137.2307 183.6361,-137.2307"/>
<ellipse fill="none" stroke="#000000" cx="180.4905" cy="-136.643" rx="3.2" ry="3.2"/>
</g>
<!-- tasks -->
<g id="node3" class="node">
<title>tasks</title>
<g id="a_node3"><a xlink:href="../../tables/tasks.html" xlink:title="tasks" target="_top">
<polygon fill="#ffffff" stroke="transparent" points="8,-142.2 8,-247.2 140,-247.2 140,-142.2 8,-142.2"/>
<polygon fill="#f5f5f5" stroke="transparent" points="8,-223.7 8,-246.7 140,-246.7 140,-223.7 8,-223.7"/>
<polygon fill="none" stroke="#000000" points="8,-223.7 8,-246.7 140,-246.7 140,-223.7 8,-223.7"/>
<text text-anchor="start" x="13" y="-232.8" font-family="Helvetica,sans-Serif" font-weight="bold" font-size="11.00" fill="#000000">tasks</text>
<text text-anchor="start" x="105.0437" y="-231.8" font-family="Helvetica,sans-Serif" font-size="11.00" fill="#000000">[table]</text>
<polygon fill="none" stroke="#000000" points="8,-201.7 8,-223.7 140,-223.7 140,-201.7 8,-201.7"/>
<image xlink:href="../../images/primaryKeys.png" width="11px" height="12px" preserveAspectRatio="xMinYMin meet" x="13" y="-218.7"/>
<text text-anchor="start" x="28" y="-208.8" font-family="Helvetica,sans-Serif" font-size="11.00" fill="#000000">id</text>
<polygon fill="none" stroke="#000000" points="8,-179.7 8,-201.7 140,-201.7 140,-179.7 8,-179.7"/>
<image xlink:href="../../images/foreignKeys.png" width="11px" height="12px" preserveAspectRatio="xMinYMin meet" x="13" y="-196.7"/>
<text text-anchor="start" x="28" y="-186.8" font-family="Helvetica,sans-Serif" font-size="11.00" fill="#000000">list_id</text>
<polygon fill="none" stroke="#000000" points="8,-160.7 8,-179.7 140,-179.7 140,-160.7 8,-160.7"/>
<text text-anchor="start" x="11" y="-166.8" font-family="Helvetica,sans-Serif" font-size="11.00" fill="#000000">...</text>
<polygon fill="#ffffff" stroke="transparent" points="8,-141.7 8,-160.7 55,-160.7 55,-141.7 8,-141.7"/>
<polygon fill="none" stroke="#000000" points="8,-141.7 8,-160.7 55,-160.7 55,-141.7 8,-141.7"/>
<text text-anchor="start" x="11" y="-147.8" font-family="Helvetica,sans-Serif" font-size="11.00" fill="#000000">&lt; 1</text>
<polygon fill="#ffffff" stroke="transparent" points="55,-141.7 55,-160.7 106,-160.7 106,-141.7 55,-141.7"/>
<polygon fill="none" stroke="#000000" points="55,-141.7 55,-160.7 106,-160.7 106,-141.7 55,-141.7"/>
<text text-anchor="start" x="70.6105" y="-147.8" font-family="Helvetica,sans-Serif" font-size="11.00" fill="#000000">6 rows</text>
<polygon fill="#ffffff" stroke="transparent" points="106,-141.7 106,-160.7 140,-160.7 140,-141.7 106,-141.7"/>
<polygon fill="none" stroke="#000000" points="106,-141.7 106,-160.7 140,-160.7 140,-141.7 106,-141.7"/>
<text text-anchor="start" x="121.4053" y="-147.8" font-family="Helvetica,sans-Serif" font-size="11.00" fill="#000000">1 &gt;</text>
</a>
</g>
</g>
<!-- tasks_tag&#45;&gt;tasks -->
<g id="edge2" class="edge">
<title>tasks_tag:w&#45;&gt;tasks:e</title>
<path fill="none" stroke="#000000" d="M177.4561,-165.4988C162.4356,-178.3719 166.4284,-212.7 140,-212.7"/>
<polygon fill="#000000" stroke="#000000" points="183.9297,-163.2868 192.6641,-164.1066 187.7149,-161.9934 191.5,-160.7 191.5,-160.7 191.5,-160.7 187.7149,-161.9934 190.3359,-157.2934 183.9297,-163.2868 183.9297,-163.2868"/>
<ellipse fill="none" stroke="#000000" cx="180.9016" cy="-164.3215" rx="3.2" ry="3.2"/>
</g>
</g>
</svg>
