<?xml version="1.0" encoding="UTF-8" standalone="no"?>
<!DOCTYPE svg PUBLIC "-//W3C//DTD SVG 1.1//EN"
 "http://www.w3.org/Graphics/SVG/1.1/DTD/svg11.dtd">
<!-- Generated by graphviz version 2.40.1 (20161225.0304)
 -->
<!-- Title: oneDegreeRelationshipsDiagram Pages: 1 -->
<svg width="486pt" height="184pt"
 viewBox="0.00 0.00 486.00 184.20" xmlns="http://www.w3.org/2000/svg" xmlns:xlink="http://www.w3.org/1999/xlink">
<g id="graph0" class="graph" transform="scale(1 1) rotate(0) translate(4 180.2)">
<title>oneDegreeRelationshipsDiagram</title>
<polygon fill="#ffffff" stroke="transparent" points="-4,4 -4,-180.2 482,-180.2 482,4 -4,4"/>
<text text-anchor="middle" x="72.4936" y="-7.3" font-family="Helvetica,sans-Serif" font-size="11.00" fill="#000000">Generated by SchemaSpy</text>
<!-- tasks -->
<g id="node1" class="node">
<title>tasks</title>
<g id="a_node1"><a xlink:href="../../tables/tasks.html" xlink:title="tasks" target="_top">
<polygon fill="#ffffff" stroke="transparent" points="128,-38.2 128,-172.2 331,-172.2 331,-38.2 128,-38.2"/>
<polygon fill="#f5f5f5" stroke="transparent" points="130.5,-147.2 130.5,-170.2 329.5,-170.2 329.5,-147.2 130.5,-147.2"/>
<polygon fill="none" stroke="#000000" points="130.5,-147.2 130.5,-170.2 329.5,-170.2 329.5,-147.2 130.5,-147.2"/>
<text text-anchor="start" x="135.5" y="-156.3" font-family="Helvetica,sans-Serif" font-weight="bold" font-size="11.00" fill="#000000">tasks</text>
<text text-anchor="start" x="294.5437" y="-155.3" font-family="Helvetica,sans-Serif" font-size="11.00" fill="#000000">[table]</text>
<polygon fill="none" stroke="#000000" points="130.5,-125.2 130.5,-147.2 262.5,-147.2 262.5,-125.2 130.5,-125.2"/>
<image xlink:href="../../images/primaryKeys.png" width="11px" height="12px" preserveAspectRatio="xMinYMin meet" x="135.5" y="-142.2"/>
<text text-anchor="start" x="150.5" y="-132.3" font-family="Helvetica,sans-Serif" font-size="11.00" fill="#000000">id</text>
<polygon fill="none" stroke="#000000" points="262.5,-125.2 262.5,-147.2 329.5,-147.2 329.5,-125.2 262.5,-125.2"/>
<text text-anchor="start" x="265.5" y="-132.9" font-family="Helvetica,sans-Serif" font-size="11.00" fill="#000000">serial[10]</text>
<polygon fill="none" stroke="#000000" points="130.5,-103.2 130.5,-125.2 262.5,-125.2 262.5,-103.2 130.5,-103.2"/>
<image xlink:href="../../images/foreignKeys.png" width="11px" height="12px" preserveAspectRatio="xMinYMin meet" x="135.5" y="-120.2"/>
<text text-anchor="start" x="150.5" y="-110.3" font-family="Helvetica,sans-Serif" font-size="11.00" fill="#000000">list_id</text>
<polygon fill="none" stroke="#000000" points="262.5,-103.2 262.5,-125.2 329.5,-125.2 329.5,-103.2 262.5,-103.2"/>
<text text-anchor="start" x="265.5" y="-110.9" font-family="Helvetica,sans-Serif" font-size="11.00" fill="#000000">int4[10]</text>
<polygon fill="none" stroke="#000000" points="130.5,-81.2 130.5,-103.2 262.5,-103.2 262.5,-81.2 130.5,-81.2"/>
<text text-anchor="start" x="150.5" y="-88.3" font-family="Helvetica,sans-Serif" font-size="11.00" fill="#000000">task_title</text>
<polygon fill="none" stroke="#000000" points="262.5,-81.2 262.5,-103.2 329.5,-103.2 329.5,-81.2 262.5,-81.2"/>
<text text-anchor="start" x="265.5" y="-88.9" font-family="Helvetica,sans-Serif" font-size="11.00" fill="#000000">varchar[25]</text>
<polygon fill="none" stroke="#000000" points="130.5,-59.2 130.5,-81.2 262.5,-81.2 262.5,-59.2 130.5,-59.2"/>
<text text-anchor="start" x="150.5" y="-66.3" font-family="Helvetica,sans-Serif" font-size="11.00" fill="#000000">task_description</text>
<polygon fill="none" stroke="#000000" points="262.5,-59.2 262.5,-81.2 329.5,-81.2 329.5,-59.2 262.5,-59.2"/>
<text text-anchor="start" x="265.4365" y="-66.9" font-family="Helvetica,sans-Serif" font-size="11.00" fill="#000000">varchar[100]</text>
<polygon fill="#ffffff" stroke="transparent" points="130.5,-40.2 130.5,-59.2 187.5,-59.2 187.5,-40.2 130.5,-40.2"/>
<polygon fill="none" stroke="#000000" points="130.5,-40.2 130.5,-59.2 187.5,-59.2 187.5,-40.2 130.5,-40.2"/>
<text text-anchor="start" x="133.5" y="-46.3" font-family="Helvetica,sans-Serif" font-size="11.00" fill="#000000">&lt; 1</text>
<polygon fill="#ffffff" stroke="transparent" points="187.5,-40.2 187.5,-59.2 262.5,-59.2 262.5,-40.2 187.5,-40.2"/>
<polygon fill="none" stroke="#000000" points="187.5,-40.2 187.5,-59.2 262.5,-59.2 262.5,-40.2 187.5,-40.2"/>
<text text-anchor="start" x="227.1105" y="-46.3" font-family="Helvetica,sans-Serif" font-size="11.00" fill="#000000">6 rows</text>
<polygon fill="#ffffff" stroke="transparent" points="262.5,-40.2 262.5,-59.2 329.5,-59.2 329.5,-40.2 262.5,-40.2"/>
<polygon fill="none" stroke="#000000" points="262.5,-40.2 262.5,-59.2 329.5,-59.2 329.5,-40.2 262.5,-40.2"/>
<text text-anchor="start" x="310.9053" y="-46.3" font-family="Helvetica,sans-Serif" font-size="11.00" fill="#000000">1 &gt;</text>
<polygon fill="none" stroke="#000000" stroke-width="2" points="129,-39.2 129,-171.2 330,-171.2 330,-39.2 129,-39.2"/>
</a>
</g>
</g>
<!-- lists -->
<g id="node2" class="node">
<title>lists</title>
<g id="a_node2"><a xlink:href="../../tables/lists.html" xlink:title="lists" target="_top">
<polygon fill="#ffffff" stroke="transparent" points="8,-62.2 8,-148.2 79,-148.2 79,-62.2 8,-62.2"/>
<polygon fill="#f5f5f5" stroke="transparent" points="8.5,-125.2 8.5,-148.2 79.5,-148.2 79.5,-125.2 8.5,-125.2"/>
<polygon fill="none" stroke="#000000" points="8.5,-125.2 8.5,-148.2 79.5,-148.2 79.5,-125.2 8.5,-125.2"/>
<text text-anchor="start" x="13.5" y="-134.3" font-family="Helvetica,sans-Serif" font-weight="bold" font-size="11.00" fill="#000000">lists</text>
<text text-anchor="start" x="44.5437" y="-133.3" font-family="Helvetica,sans-Serif" font-size="11.00" fill="#000000">[table]</text>
<polygon fill="none" stroke="#000000" points="8.5,-103.2 8.5,-125.2 79.5,-125.2 79.5,-103.2 8.5,-103.2"/>
<image xlink:href="../../images/primaryKeys.png" width="11px" height="12px" preserveAspectRatio="xMinYMin meet" x="13.5" y="-120.2"/>
<text text-anchor="start" x="39.5" y="-110.3" font-family="Helvetica,sans-Serif" font-size="11.00" fill="#000000">id</text>
<polygon fill="#ffffff" stroke="transparent" points="8.5,-81.2 8.5,-103.2 79.5,-103.2 79.5,-81.2 8.5,-81.2"/>
<polygon fill="none" stroke="#000000" points="8.5,-81.2 8.5,-103.2 79.5,-103.2 79.5,-81.2 8.5,-81.2"/>
<text text-anchor="start" x="39.5" y="-88.3" font-family="Helvetica,sans-Serif" font-size="11.00" fill="#000000">title</text>
<polygon fill="#ffffff" stroke="transparent" points="8.5,-62.2 8.5,-81.2 20.5,-81.2 20.5,-62.2 8.5,-62.2"/>
<polygon fill="none" stroke="#000000" points="8.5,-62.2 8.5,-81.2 20.5,-81.2 20.5,-62.2 8.5,-62.2"/>
<text text-anchor="start" x="11.4431" y="-68.3" font-family="Helvetica,sans-Serif" font-size="11.00" fill="#000000"> &#160;</text>
<polygon fill="#ffffff" stroke="transparent" points="20.5,-62.2 20.5,-81.2 58.5,-81.2 58.5,-62.2 20.5,-62.2"/>
<polygon fill="none" stroke="#000000" points="20.5,-62.2 20.5,-81.2 58.5,-81.2 58.5,-62.2 20.5,-62.2"/>
<text text-anchor="start" x="23.3053" y="-68.3" font-family="Helvetica,sans-Serif" font-size="11.00" fill="#000000">3 rows</text>
<polygon fill="#ffffff" stroke="transparent" points="58.5,-62.2 58.5,-81.2 79.5,-81.2 79.5,-62.2 58.5,-62.2"/>
<polygon fill="none" stroke="#000000" points="58.5,-62.2 58.5,-81.2 79.5,-81.2 79.5,-62.2 58.5,-62.2"/>
<text text-anchor="start" x="61.2027" y="-68.3" font-family="Helvetica,sans-Serif" font-size="11.00" fill="#000000">1 &gt;</text>
</a>
</g>
</g>
<!-- tasks&#45;&gt;lists -->
<g id="edge1" class="edge">
<title>tasks:w&#45;&gt;lists:e</title>
<path fill="none" stroke="#000000" d="M115.776,-114.2C103.7815,-114.2 96.3229,-114.2 79.5,-114.2"/>
<polygon fill="#000000" stroke="#000000" points="122.5,-114.2001 130.5,-117.8 126.5,-114.2 130.5,-114.2 130.5,-114.2 130.5,-114.2 126.5,-114.2 130.5,-110.6 122.5,-114.2001 122.5,-114.2001"/>
<ellipse fill="none" stroke="#000000" cx="119.3" cy="-114.2001" rx="3.2" ry="3.2"/>
</g>
<!-- tasks_tag -->
<g id="node3" class="node">
<title>tasks_tag</title>
<g id="a_node3"><a xlink:href="../../tables/tasks_tag.html" xlink:title="tasks_tag" target="_top">
<polygon fill="#ffffff" stroke="transparent" points="380,-84.2 380,-170.2 470,-170.2 470,-84.2 380,-84.2"/>
<polygon fill="#f5f5f5" stroke="transparent" points="380,-147.2 380,-170.2 470,-170.2 470,-147.2 380,-147.2"/>
<polygon fill="none" stroke="#000000" points="380,-147.2 380,-170.2 470,-170.2 470,-147.2 380,-147.2"/>
<text text-anchor="start" x="384.9633" y="-156.3" font-family="Helvetica,sans-Serif" font-weight="bold" font-size="11.00" fill="#000000">tasks_tag</text>
<text text-anchor="start" x="435.5219" y="-155.3" font-family="Helvetica,sans-Serif" font-size="11.00" fill="#000000">[table]</text>
<polygon fill="none" stroke="#000000" points="380,-125.2 380,-147.2 470,-147.2 470,-125.2 380,-125.2"/>
<image xlink:href="../../images/primaryKeys.png" width="11px" height="12px" preserveAspectRatio="xMinYMin meet" x="385" y="-142.2"/>
<text text-anchor="start" x="403" y="-132.3" font-family="Helvetica,sans-Serif" font-size="11.00" fill="#000000">task_id</text>
<polygon fill="none" stroke="#000000" points="380,-103.2 380,-125.2 470,-125.2 470,-103.2 380,-103.2"/>
<image xlink:href="../../images/primaryKeys.png" width="11px" height="12px" preserveAspectRatio="xMinYMin meet" x="385" y="-120.2"/>
<text text-anchor="start" x="403" y="-110.3" font-family="Helvetica,sans-Serif" font-size="11.00" fill="#000000">tag_id</text>
<polygon fill="#ffffff" stroke="transparent" points="380,-84.2 380,-103.2 410,-103.2 410,-84.2 380,-84.2"/>
<polygon fill="none" stroke="#000000" points="380,-84.2 380,-103.2 410,-103.2 410,-84.2 380,-84.2"/>
<text text-anchor="start" x="383" y="-90.3" font-family="Helvetica,sans-Serif" font-size="11.00" fill="#000000">&lt; 2</text>
<polygon fill="#ffffff" stroke="transparent" points="410,-84.2 410,-103.2 453,-103.2 453,-84.2 410,-84.2"/>
<polygon fill="none" stroke="#000000" points="410,-84.2 410,-103.2 453,-103.2 453,-84.2 410,-84.2"/>
<text text-anchor="start" x="417.6105" y="-90.3" font-family="Helvetica,sans-Serif" font-size="11.00" fill="#000000">8 rows</text>
<polygon fill="#ffffff" stroke="transparent" points="453,-84.2 453,-103.2 470,-103.2 470,-84.2 453,-84.2"/>
<polygon fill="none" stroke="#000000" points="453,-84.2 453,-103.2 470,-103.2 470,-84.2 453,-84.2"/>
<text text-anchor="start" x="460.8862" y="-90.3" font-family="Helvetica,sans-Serif" font-size="11.00" fill="#000000"> &#160;</text>
</a>
</g>
</g>
<!-- tasks_tag&#45;&gt;tasks -->
<g id="edge2" class="edge">
<title>tasks_tag:w&#45;&gt;tasks:e</title>
<path fill="none" stroke="#000000" d="M365.4203,-136.2C353.5435,-136.2 346.158,-136.2 329.5,-136.2"/>
<polygon fill="#000000" stroke="#000000" points="372,-136.2001 380,-139.8 376,-136.2 380,-136.2 380,-136.2 380,-136.2 376,-136.2 380,-132.6 372,-136.2001 372,-136.2001"/>
<ellipse fill="none" stroke="#000000" cx="368.8" cy="-136.2001" rx="3.2" ry="3.2"/>
</g>
</g>
</svg>
