<?xml version="1.0" encoding="UTF-8" standalone="no"?>
<!DOCTYPE svg PUBLIC "-//W3C//DTD SVG 1.1//EN"
 "http://www.w3.org/Graphics/SVG/1.1/DTD/svg11.dtd">
<!-- Generated by graphviz version 2.40.1 (20161225.0304)
 -->
<!-- Title: twoDegreesRelationshipsDiagram Pages: 1 -->
<svg width="456pt" height="259pt"
 viewBox="0.00 0.00 456.00 259.20" xmlns="http://www.w3.org/2000/svg" xmlns:xlink="http://www.w3.org/1999/xlink">
<g id="graph0" class="graph" transform="scale(1 1) rotate(0) translate(4 255.2)">
<title>twoDegreesRelationshipsDiagram</title>
<polygon fill="#ffffff" stroke="transparent" points="-4,4 -4,-255.2 452,-255.2 452,4 -4,4"/>
<text text-anchor="middle" x="72.4936" y="-7.3" font-family="Helvetica,sans-Serif" font-size="11.00" fill="#000000">Generated by SchemaSpy</text>
<!-- tasks -->
<g id="node1" class="node">
<title>tasks</title>
<g id="a_node1"><a xlink:href="../../tables/tasks.html" xlink:title="tasks" target="_top">
<polygon fill="#ffffff" stroke="transparent" points="128,-142.2 128,-247.2 260,-247.2 260,-142.2 128,-142.2"/>
<polygon fill="#f5f5f5" stroke="transparent" points="128,-223.7 128,-246.7 260,-246.7 260,-223.7 128,-223.7"/>
<polygon fill="none" stroke="#000000" points="128,-223.7 128,-246.7 260,-246.7 260,-223.7 128,-223.7"/>
<text text-anchor="start" x="133" y="-232.8" font-family="Helvetica,sans-Serif" font-weight="bold" font-size="11.00" fill="#000000">tasks</text>
<text text-anchor="start" x="225.0437" y="-231.8" font-family="Helvetica,sans-Serif" font-size="11.00" fill="#000000">[table]</text>
<polygon fill="none" stroke="#000000" points="128,-201.7 128,-223.7 260,-223.7 260,-201.7 128,-201.7"/>
<image xlink:href="../../images/primaryKeys.png" width="11px" height="12px" preserveAspectRatio="xMinYMin meet" x="133" y="-218.7"/>
<text text-anchor="start" x="148" y="-208.8" font-family="Helvetica,sans-Serif" font-size="11.00" fill="#000000">id</text>
<polygon fill="none" stroke="#000000" points="128,-179.7 128,-201.7 260,-201.7 260,-179.7 128,-179.7"/>
<image xlink:href="../../images/foreignKeys.png" width="11px" height="12px" preserveAspectRatio="xMinYMin meet" x="133" y="-196.7"/>
<text text-anchor="start" x="148" y="-186.8" font-family="Helvetica,sans-Serif" font-size="11.00" fill="#000000">list_id</text>
<polygon fill="none" stroke="#000000" points="128,-160.7 128,-179.7 260,-179.7 260,-160.7 128,-160.7"/>
<text text-anchor="start" x="131" y="-166.8" font-family="Helvetica,sans-Serif" font-size="11.00" fill="#000000">...</text>
<polygon fill="#ffffff" stroke="transparent" points="128,-141.7 128,-160.7 175,-160.7 175,-141.7 128,-141.7"/>
<polygon fill="none" stroke="#000000" points="128,-141.7 128,-160.7 175,-160.7 175,-141.7 128,-141.7"/>
<text text-anchor="start" x="131" y="-147.8" font-family="Helvetica,sans-Serif" font-size="11.00" fill="#000000">&lt; 1</text>
<polygon fill="#ffffff" stroke="transparent" points="175,-141.7 175,-160.7 226,-160.7 226,-141.7 175,-141.7"/>
<polygon fill="none" stroke="#000000" points="175,-141.7 175,-160.7 226,-160.7 226,-141.7 175,-141.7"/>
<text text-anchor="start" x="190.6105" y="-147.8" font-family="Helvetica,sans-Serif" font-size="11.00" fill="#000000">6 rows</text>
<polygon fill="#ffffff" stroke="transparent" points="226,-141.7 226,-160.7 260,-160.7 260,-141.7 226,-141.7"/>
<polygon fill="none" stroke="#000000" points="226,-141.7 226,-160.7 260,-160.7 260,-141.7 226,-141.7"/>
<text text-anchor="start" x="241.4053" y="-147.8" font-family="Helvetica,sans-Serif" font-size="11.00" fill="#000000">1 &gt;</text>
</a>
</g>
</g>
<!-- lists -->
<g id="node2" class="node">
<title>lists</title>
<g id="a_node2"><a xlink:href="../../tables/lists.html" xlink:title="lists" target="_top">
<polygon fill="#ffffff" stroke="transparent" points="8,-163.2 8,-224.2 79,-224.2 79,-163.2 8,-163.2"/>
<polygon fill="#f5f5f5" stroke="transparent" points="8.5,-200.7 8.5,-223.7 79.5,-223.7 79.5,-200.7 8.5,-200.7"/>
<polygon fill="none" stroke="#000000" points="8.5,-200.7 8.5,-223.7 79.5,-223.7 79.5,-200.7 8.5,-200.7"/>
<text text-anchor="start" x="13.5" y="-209.8" font-family="Helvetica,sans-Serif" font-weight="bold" font-size="11.00" fill="#000000">lists</text>
<text text-anchor="start" x="44.5437" y="-208.8" font-family="Helvetica,sans-Serif" font-size="11.00" fill="#000000">[table]</text>
<polygon fill="none" stroke="#000000" points="8.5,-181.7 8.5,-200.7 79.5,-200.7 79.5,-181.7 8.5,-181.7"/>
<text text-anchor="start" x="11.5" y="-187.8" font-family="Helvetica,sans-Serif" font-size="11.00" fill="#000000">...</text>
<polygon fill="#ffffff" stroke="transparent" points="8.5,-162.7 8.5,-181.7 20.5,-181.7 20.5,-162.7 8.5,-162.7"/>
<polygon fill="none" stroke="#000000" points="8.5,-162.7 8.5,-181.7 20.5,-181.7 20.5,-162.7 8.5,-162.7"/>
<text text-anchor="start" x="11.4431" y="-168.8" font-family="Helvetica,sans-Serif" font-size="11.00" fill="#000000"> &#160;</text>
<polygon fill="#ffffff" stroke="transparent" points="20.5,-162.7 20.5,-181.7 58.5,-181.7 58.5,-162.7 20.5,-162.7"/>
<polygon fill="none" stroke="#000000" points="20.5,-162.7 20.5,-181.7 58.5,-181.7 58.5,-162.7 20.5,-162.7"/>
<text text-anchor="start" x="23.3053" y="-168.8" font-family="Helvetica,sans-Serif" font-size="11.00" fill="#000000">3 rows</text>
<polygon fill="#ffffff" stroke="transparent" points="58.5,-162.7 58.5,-181.7 79.5,-181.7 79.5,-162.7 58.5,-162.7"/>
<polygon fill="none" stroke="#000000" points="58.5,-162.7 58.5,-181.7 79.5,-181.7 79.5,-162.7 58.5,-162.7"/>
<text text-anchor="start" x="61.2027" y="-168.8" font-family="Helvetica,sans-Serif" font-size="11.00" fill="#000000">1 &gt;</text>
</a>
</g>
</g>
<!-- tasks&#45;&gt;lists -->
<g id="edge1" class="edge">
<title>tasks:w&#45;&gt;lists:e</title>
<path fill="none" stroke="#000000" d="M113.2829,-190.7C102.2886,-190.7 95.1615,-190.7 79.5,-190.7"/>
<polygon fill="#000000" stroke="#000000" points="120,-190.7001 128,-194.3 124,-190.7 128,-190.7 128,-190.7 128,-190.7 124,-190.7 128,-187.1 120,-190.7001 120,-190.7001"/>
<ellipse fill="none" stroke="#000000" cx="116.8" cy="-190.7001" rx="3.2" ry="3.2"/>
</g>
<!-- tasks_tag -->
<g id="node3" class="node">
<title>tasks_tag</title>
<g id="a_node3"><a xlink:href="../../tables/tasks_tag.html" xlink:title="tasks_tag" target="_top">
<polygon fill="#ffffff" stroke="transparent" points="309,-106.7 309,-196.7 440,-196.7 440,-106.7 309,-106.7"/>
<polygon fill="#f5f5f5" stroke="transparent" points="311.5,-171.7 311.5,-194.7 438.5,-194.7 438.5,-171.7 311.5,-171.7"/>
<polygon fill="none" stroke="#000000" points="311.5,-171.7 311.5,-194.7 438.5,-194.7 438.5,-171.7 311.5,-171.7"/>
<text text-anchor="start" x="316.5" y="-180.8" font-family="Helvetica,sans-Serif" font-weight="bold" font-size="11.00" fill="#000000">tasks_tag</text>
<text text-anchor="start" x="403.5437" y="-179.8" font-family="Helvetica,sans-Serif" font-size="11.00" fill="#000000">[table]</text>
<polygon fill="none" stroke="#000000" points="311.5,-149.7 311.5,-171.7 396.5,-171.7 396.5,-149.7 311.5,-149.7"/>
<image xlink:href="../../images/primaryKeys.png" width="11px" height="12px" preserveAspectRatio="xMinYMin meet" x="316.5" y="-166.7"/>
<text text-anchor="start" x="331.5" y="-156.8" font-family="Helvetica,sans-Serif" font-size="11.00" fill="#000000">task_id</text>
<polygon fill="none" stroke="#000000" points="396.5,-149.7 396.5,-171.7 438.5,-171.7 438.5,-149.7 396.5,-149.7"/>
<text text-anchor="start" x="399.4644" y="-157.4" font-family="Helvetica,sans-Serif" font-size="11.00" fill="#000000">int4[10]</text>
<polygon fill="none" stroke="#000000" points="311.5,-127.7 311.5,-149.7 396.5,-149.7 396.5,-127.7 311.5,-127.7"/>
<image xlink:href="../../images/primaryKeys.png" width="11px" height="12px" preserveAspectRatio="xMinYMin meet" x="316.5" y="-144.7"/>
<text text-anchor="start" x="331.5" y="-134.8" font-family="Helvetica,sans-Serif" font-size="11.00" fill="#000000">tag_id</text>
<polygon fill="none" stroke="#000000" points="396.5,-127.7 396.5,-149.7 438.5,-149.7 438.5,-127.7 396.5,-127.7"/>
<text text-anchor="start" x="399.4644" y="-135.4" font-family="Helvetica,sans-Serif" font-size="11.00" fill="#000000">int4[10]</text>
<polygon fill="#ffffff" stroke="transparent" points="311.5,-108.7 311.5,-127.7 345.5,-127.7 345.5,-108.7 311.5,-108.7"/>
<polygon fill="none" stroke="#000000" points="311.5,-108.7 311.5,-127.7 345.5,-127.7 345.5,-108.7 311.5,-108.7"/>
<text text-anchor="start" x="314.5" y="-114.8" font-family="Helvetica,sans-Serif" font-size="11.00" fill="#000000">&lt; 2</text>
<polygon fill="#ffffff" stroke="transparent" points="345.5,-108.7 345.5,-127.7 396.5,-127.7 396.5,-108.7 345.5,-108.7"/>
<polygon fill="none" stroke="#000000" points="345.5,-108.7 345.5,-127.7 396.5,-127.7 396.5,-108.7 345.5,-108.7"/>
<text text-anchor="start" x="361.1105" y="-114.8" font-family="Helvetica,sans-Serif" font-size="11.00" fill="#000000">8 rows</text>
<polygon fill="#ffffff" stroke="transparent" points="396.5,-108.7 396.5,-127.7 438.5,-127.7 438.5,-108.7 396.5,-108.7"/>
<polygon fill="none" stroke="#000000" points="396.5,-108.7 396.5,-127.7 438.5,-127.7 438.5,-108.7 396.5,-108.7"/>
<text text-anchor="start" x="419.9053" y="-114.8" font-family="Helvetica,sans-Serif" font-size="11.00" fill="#000000">0 &gt;</text>
<polygon fill="none" stroke="#000000" stroke-width="2" points="310,-107.7 310,-195.7 439,-195.7 439,-107.7 310,-107.7"/>
</a>
</g>
</g>
<!-- tasks_tag&#45;&gt;tasks -->
<g id="edge3" class="edge">
<title>tasks_tag:w&#45;&gt;tasks:e</title>
<path fill="none" stroke="#000000" d="M297.4561,-165.4988C282.4356,-178.3719 286.4284,-212.7 260,-212.7"/>
<polygon fill="#000000" stroke="#000000" points="303.9297,-163.2868 312.6641,-164.1066 307.7149,-161.9934 311.5,-160.7 311.5,-160.7 311.5,-160.7 307.7149,-161.9934 310.3359,-157.2934 303.9297,-163.2868 303.9297,-163.2868"/>
<ellipse fill="none" stroke="#000000" cx="300.9016" cy="-164.3215" rx="3.2" ry="3.2"/>
</g>
<!-- tag -->
<g id="node4" class="node">
<title>tag</title>
<g id="a_node4"><a xlink:href="../../tables/tag.html" xlink:title="tag" target="_top">
<polygon fill="#ffffff" stroke="transparent" points="151,-38.2 151,-121.2 237,-121.2 237,-38.2 151,-38.2"/>
<polygon fill="#f5f5f5" stroke="transparent" points="151,-97.7 151,-120.7 237,-120.7 237,-97.7 151,-97.7"/>
<polygon fill="none" stroke="#000000" points="151,-97.7 151,-120.7 237,-120.7 237,-97.7 151,-97.7"/>
<text text-anchor="start" x="156" y="-106.8" font-family="Helvetica,sans-Serif" font-weight="bold" font-size="11.00" fill="#000000">tag</text>
<text text-anchor="start" x="202.0437" y="-105.8" font-family="Helvetica,sans-Serif" font-size="11.00" fill="#000000">[table]</text>
<polygon fill="none" stroke="#000000" points="151,-75.7 151,-97.7 237,-97.7 237,-75.7 151,-75.7"/>
<image xlink:href="../../images/primaryKeys.png" width="11px" height="12px" preserveAspectRatio="xMinYMin meet" x="156" y="-92.7"/>
<text text-anchor="start" x="171" y="-82.8" font-family="Helvetica,sans-Serif" font-size="11.00" fill="#000000">id</text>
<polygon fill="none" stroke="#000000" points="151,-56.7 151,-75.7 237,-75.7 237,-56.7 151,-56.7"/>
<text text-anchor="start" x="154" y="-62.8" font-family="Helvetica,sans-Serif" font-size="11.00" fill="#000000">...</text>
<polygon fill="#ffffff" stroke="transparent" points="151,-37.7 151,-56.7 170,-56.7 170,-37.7 151,-37.7"/>
<polygon fill="none" stroke="#000000" points="151,-37.7 151,-56.7 170,-56.7 170,-37.7 151,-37.7"/>
<text text-anchor="start" x="154" y="-43.8" font-family="Helvetica,sans-Serif" font-size="11.00" fill="#000000"> &#160;</text>
<polygon fill="#ffffff" stroke="transparent" points="170,-37.7 170,-56.7 212,-56.7 212,-37.7 170,-37.7"/>
<polygon fill="none" stroke="#000000" points="170,-37.7 170,-56.7 212,-56.7 212,-37.7 170,-37.7"/>
<text text-anchor="start" x="176.6105" y="-43.8" font-family="Helvetica,sans-Serif" font-size="11.00" fill="#000000">8 rows</text>
<polygon fill="#ffffff" stroke="transparent" points="212,-37.7 212,-56.7 237,-56.7 237,-37.7 212,-37.7"/>
<polygon fill="none" stroke="#000000" points="212,-37.7 212,-56.7 237,-56.7 237,-37.7 212,-37.7"/>
<text text-anchor="start" x="218.4053" y="-43.8" font-family="Helvetica,sans-Serif" font-size="11.00" fill="#000000">1 &gt;</text>
</a>
</g>
</g>
<!-- tasks_tag&#45;&gt;tag -->
<g id="edge2" class="edge">
<title>tasks_tag:w&#45;&gt;tag:e</title>
<path fill="none" stroke="#000000" d="M297.3151,-136.0498C271.9604,-125.4532 271.8585,-86.7 237,-86.7"/>
<polygon fill="#000000" stroke="#000000" points="303.6361,-137.2307 310.8388,-142.2388 307.568,-137.9654 311.5,-138.7 311.5,-138.7 311.5,-138.7 307.568,-137.9654 312.1612,-135.1612 303.6361,-137.2307 303.6361,-137.2307"/>
<ellipse fill="none" stroke="#000000" cx="300.4905" cy="-136.643" rx="3.2" ry="3.2"/>
</g>
</g>
</svg>
