<?xml version="1.0" encoding="UTF-8" standalone="no"?>
<!DOCTYPE svg PUBLIC "-//W3C//DTD SVG 1.1//EN"
 "http://www.w3.org/Graphics/SVG/1.1/DTD/svg11.dtd">
<!-- Generated by graphviz version 2.40.1 (20161225.0304)
 -->
<!-- Title: twoDegreesRelationshipsDiagram Pages: 1 -->
<svg width="486pt" height="267pt"
 viewBox="0.00 0.00 486.00 266.70" xmlns="http://www.w3.org/2000/svg" xmlns:xlink="http://www.w3.org/1999/xlink">
<g id="graph0" class="graph" transform="scale(1 1) rotate(0) translate(4 262.7)">
<title>twoDegreesRelationshipsDiagram</title>
<polygon fill="#ffffff" stroke="transparent" points="-4,4 -4,-262.7 482,-262.7 482,4 -4,4"/>
<text text-anchor="middle" x="72.4936" y="-7.3" font-family="Helvetica,sans-Serif" font-size="11.00" fill="#000000">Generated by SchemaSpy</text>
<!-- tasks -->
<g id="node1" class="node">
<title>tasks</title>
<g id="a_node1"><a xlink:href="../../tables/tasks.html" xlink:title="tasks" target="_top">
<polygon fill="#ffffff" stroke="transparent" points="128,-120.7 128,-254.7 331,-254.7 331,-120.7 128,-120.7"/>
<polygon fill="#f5f5f5" stroke="transparent" points="130.5,-229.7 130.5,-252.7 329.5,-252.7 329.5,-229.7 130.5,-229.7"/>
<polygon fill="none" stroke="#000000" points="130.5,-229.7 130.5,-252.7 329.5,-252.7 329.5,-229.7 130.5,-229.7"/>
<text text-anchor="start" x="135.5" y="-238.8" font-family="Helvetica,sans-Serif" font-weight="bold" font-size="11.00" fill="#000000">tasks</text>
<text text-anchor="start" x="294.5437" y="-237.8" font-family="Helvetica,sans-Serif" font-size="11.00" fill="#000000">[table]</text>
<polygon fill="none" stroke="#000000" points="130.5,-207.7 130.5,-229.7 262.5,-229.7 262.5,-207.7 130.5,-207.7"/>
<image xlink:href="../../images/primaryKeys.png" width="11px" height="12px" preserveAspectRatio="xMinYMin meet" x="135.5" y="-224.7"/>
<text text-anchor="start" x="150.5" y="-214.8" font-family="Helvetica,sans-Serif" font-size="11.00" fill="#000000">id</text>
<polygon fill="none" stroke="#000000" points="262.5,-207.7 262.5,-229.7 329.5,-229.7 329.5,-207.7 262.5,-207.7"/>
<text text-anchor="start" x="265.5" y="-215.4" font-family="Helvetica,sans-Serif" font-size="11.00" fill="#000000">serial[10]</text>
<polygon fill="none" stroke="#000000" points="130.5,-185.7 130.5,-207.7 262.5,-207.7 262.5,-185.7 130.5,-185.7"/>
<image xlink:href="../../images/foreignKeys.png" width="11px" height="12px" preserveAspectRatio="xMinYMin meet" x="135.5" y="-202.7"/>
<text text-anchor="start" x="150.5" y="-192.8" font-family="Helvetica,sans-Serif" font-size="11.00" fill="#000000">list_id</text>
<polygon fill="none" stroke="#000000" points="262.5,-185.7 262.5,-207.7 329.5,-207.7 329.5,-185.7 262.5,-185.7"/>
<text text-anchor="start" x="265.5" y="-193.4" font-family="Helvetica,sans-Serif" font-size="11.00" fill="#000000">int4[10]</text>
<polygon fill="none" stroke="#000000" points="130.5,-163.7 130.5,-185.7 262.5,-185.7 262.5,-163.7 130.5,-163.7"/>
<text text-anchor="start" x="150.5" y="-170.8" font-family="Helvetica,sans-Serif" font-size="11.00" fill="#000000">task_title</text>
<polygon fill="none" stroke="#000000" points="262.5,-163.7 262.5,-185.7 329.5,-185.7 329.5,-163.7 262.5,-163.7"/>
<text text-anchor="start" x="265.5" y="-171.4" font-family="Helvetica,sans-Serif" font-size="11.00" fill="#000000">varchar[25]</text>
<polygon fill="none" stroke="#000000" points="130.5,-141.7 130.5,-163.7 262.5,-163.7 262.5,-141.7 130.5,-141.7"/>
<text text-anchor="start" x="150.5" y="-148.8" font-family="Helvetica,sans-Serif" font-size="11.00" fill="#000000">task_description</text>
<polygon fill="none" stroke="#000000" points="262.5,-141.7 262.5,-163.7 329.5,-163.7 329.5,-141.7 262.5,-141.7"/>
<text text-anchor="start" x="265.4365" y="-149.4" font-family="Helvetica,sans-Serif" font-size="11.00" fill="#000000">varchar[100]</text>
<polygon fill="#ffffff" stroke="transparent" points="130.5,-122.7 130.5,-141.7 187.5,-141.7 187.5,-122.7 130.5,-122.7"/>
<polygon fill="none" stroke="#000000" points="130.5,-122.7 130.5,-141.7 187.5,-141.7 187.5,-122.7 130.5,-122.7"/>
<text text-anchor="start" x="133.5" y="-128.8" font-family="Helvetica,sans-Serif" font-size="11.00" fill="#000000">&lt; 1</text>
<polygon fill="#ffffff" stroke="transparent" points="187.5,-122.7 187.5,-141.7 262.5,-141.7 262.5,-122.7 187.5,-122.7"/>
<polygon fill="none" stroke="#000000" points="187.5,-122.7 187.5,-141.7 262.5,-141.7 262.5,-122.7 187.5,-122.7"/>
<text text-anchor="start" x="227.1105" y="-128.8" font-family="Helvetica,sans-Serif" font-size="11.00" fill="#000000">6 rows</text>
<polygon fill="#ffffff" stroke="transparent" points="262.5,-122.7 262.5,-141.7 329.5,-141.7 329.5,-122.7 262.5,-122.7"/>
<polygon fill="none" stroke="#000000" points="262.5,-122.7 262.5,-141.7 329.5,-141.7 329.5,-122.7 262.5,-122.7"/>
<text text-anchor="start" x="310.9053" y="-128.8" font-family="Helvetica,sans-Serif" font-size="11.00" fill="#000000">1 &gt;</text>
<polygon fill="none" stroke="#000000" stroke-width="2" points="129,-121.7 129,-253.7 330,-253.7 330,-121.7 129,-121.7"/>
</a>
</g>
</g>
<!-- lists -->
<g id="node2" class="node">
<title>lists</title>
<g id="a_node2"><a xlink:href="../../tables/lists.html" xlink:title="lists" target="_top">
<polygon fill="#ffffff" stroke="transparent" points="8,-144.7 8,-230.7 79,-230.7 79,-144.7 8,-144.7"/>
<polygon fill="#f5f5f5" stroke="transparent" points="8.5,-207.7 8.5,-230.7 79.5,-230.7 79.5,-207.7 8.5,-207.7"/>
<polygon fill="none" stroke="#000000" points="8.5,-207.7 8.5,-230.7 79.5,-230.7 79.5,-207.7 8.5,-207.7"/>
<text text-anchor="start" x="13.5" y="-216.8" font-family="Helvetica,sans-Serif" font-weight="bold" font-size="11.00" fill="#000000">lists</text>
<text text-anchor="start" x="44.5437" y="-215.8" font-family="Helvetica,sans-Serif" font-size="11.00" fill="#000000">[table]</text>
<polygon fill="none" stroke="#000000" points="8.5,-185.7 8.5,-207.7 79.5,-207.7 79.5,-185.7 8.5,-185.7"/>
<image xlink:href="../../images/primaryKeys.png" width="11px" height="12px" preserveAspectRatio="xMinYMin meet" x="13.5" y="-202.7"/>
<text text-anchor="start" x="39.5" y="-192.8" font-family="Helvetica,sans-Serif" font-size="11.00" fill="#000000">id</text>
<polygon fill="#ffffff" stroke="transparent" points="8.5,-163.7 8.5,-185.7 79.5,-185.7 79.5,-163.7 8.5,-163.7"/>
<polygon fill="none" stroke="#000000" points="8.5,-163.7 8.5,-185.7 79.5,-185.7 79.5,-163.7 8.5,-163.7"/>
<text text-anchor="start" x="39.5" y="-170.8" font-family="Helvetica,sans-Serif" font-size="11.00" fill="#000000">title</text>
<polygon fill="#ffffff" stroke="transparent" points="8.5,-144.7 8.5,-163.7 20.5,-163.7 20.5,-144.7 8.5,-144.7"/>
<polygon fill="none" stroke="#000000" points="8.5,-144.7 8.5,-163.7 20.5,-163.7 20.5,-144.7 8.5,-144.7"/>
<text text-anchor="start" x="11.4431" y="-150.8" font-family="Helvetica,sans-Serif" font-size="11.00" fill="#000000"> &#160;</text>
<polygon fill="#ffffff" stroke="transparent" points="20.5,-144.7 20.5,-163.7 58.5,-163.7 58.5,-144.7 20.5,-144.7"/>
<polygon fill="none" stroke="#000000" points="20.5,-144.7 20.5,-163.7 58.5,-163.7 58.5,-144.7 20.5,-144.7"/>
<text text-anchor="start" x="23.3053" y="-150.8" font-family="Helvetica,sans-Serif" font-size="11.00" fill="#000000">3 rows</text>
<polygon fill="#ffffff" stroke="transparent" points="58.5,-144.7 58.5,-163.7 79.5,-163.7 79.5,-144.7 58.5,-144.7"/>
<polygon fill="none" stroke="#000000" points="58.5,-144.7 58.5,-163.7 79.5,-163.7 79.5,-144.7 58.5,-144.7"/>
<text text-anchor="start" x="61.2027" y="-150.8" font-family="Helvetica,sans-Serif" font-size="11.00" fill="#000000">1 &gt;</text>
</a>
</g>
</g>
<!-- tasks&#45;&gt;lists -->
<g id="edge1" class="edge">
<title>tasks:w&#45;&gt;lists:e</title>
<path fill="none" stroke="#000000" d="M115.776,-196.7C103.7815,-196.7 96.3229,-196.7 79.5,-196.7"/>
<polygon fill="#000000" stroke="#000000" points="122.5,-196.7001 130.5,-200.3 126.5,-196.7 130.5,-196.7 130.5,-196.7 130.5,-196.7 126.5,-196.7 130.5,-193.1 122.5,-196.7001 122.5,-196.7001"/>
<ellipse fill="none" stroke="#000000" cx="119.3" cy="-196.7001" rx="3.2" ry="3.2"/>
</g>
<!-- tasks_tag -->
<g id="node3" class="node">
<title>tasks_tag</title>
<g id="a_node3"><a xlink:href="../../tables/tasks_tag.html" xlink:title="tasks_tag" target="_top">
<polygon fill="#ffffff" stroke="transparent" points="380,-100.7 380,-186.7 470,-186.7 470,-100.7 380,-100.7"/>
<polygon fill="#f5f5f5" stroke="transparent" points="380,-163.7 380,-186.7 470,-186.7 470,-163.7 380,-163.7"/>
<polygon fill="none" stroke="#000000" points="380,-163.7 380,-186.7 470,-186.7 470,-163.7 380,-163.7"/>
<text text-anchor="start" x="384.9633" y="-172.8" font-family="Helvetica,sans-Serif" font-weight="bold" font-size="11.00" fill="#000000">tasks_tag</text>
<text text-anchor="start" x="435.5219" y="-171.8" font-family="Helvetica,sans-Serif" font-size="11.00" fill="#000000">[table]</text>
<polygon fill="none" stroke="#000000" points="380,-141.7 380,-163.7 470,-163.7 470,-141.7 380,-141.7"/>
<image xlink:href="../../images/primaryKeys.png" width="11px" height="12px" preserveAspectRatio="xMinYMin meet" x="385" y="-158.7"/>
<text text-anchor="start" x="403" y="-148.8" font-family="Helvetica,sans-Serif" font-size="11.00" fill="#000000">task_id</text>
<polygon fill="none" stroke="#000000" points="380,-119.7 380,-141.7 470,-141.7 470,-119.7 380,-119.7"/>
<image xlink:href="../../images/primaryKeys.png" width="11px" height="12px" preserveAspectRatio="xMinYMin meet" x="385" y="-136.7"/>
<text text-anchor="start" x="403" y="-126.8" font-family="Helvetica,sans-Serif" font-size="11.00" fill="#000000">tag_id</text>
<polygon fill="#ffffff" stroke="transparent" points="380,-100.7 380,-119.7 410,-119.7 410,-100.7 380,-100.7"/>
<polygon fill="none" stroke="#000000" points="380,-100.7 380,-119.7 410,-119.7 410,-100.7 380,-100.7"/>
<text text-anchor="start" x="383" y="-106.8" font-family="Helvetica,sans-Serif" font-size="11.00" fill="#000000">&lt; 2</text>
<polygon fill="#ffffff" stroke="transparent" points="410,-100.7 410,-119.7 453,-119.7 453,-100.7 410,-100.7"/>
<polygon fill="none" stroke="#000000" points="410,-100.7 410,-119.7 453,-119.7 453,-100.7 410,-100.7"/>
<text text-anchor="start" x="417.6105" y="-106.8" font-family="Helvetica,sans-Serif" font-size="11.00" fill="#000000">8 rows</text>
<polygon fill="#ffffff" stroke="transparent" points="453,-100.7 453,-119.7 470,-119.7 470,-100.7 453,-100.7"/>
<polygon fill="none" stroke="#000000" points="453,-100.7 453,-119.7 470,-119.7 470,-100.7 453,-100.7"/>
<text text-anchor="start" x="460.8862" y="-106.8" font-family="Helvetica,sans-Serif" font-size="11.00" fill="#000000"> &#160;</text>
</a>
</g>
</g>
<!-- tasks_tag&#45;&gt;tasks -->
<g id="edge3" class="edge">
<title>tasks_tag:w&#45;&gt;tasks:e</title>
<path fill="none" stroke="#000000" d="M366.158,-157.4466C349.1101,-172.5798 360.3754,-218.7 329.5,-218.7"/>
<polygon fill="#000000" stroke="#000000" points="372.4326,-155.295 381.1677,-156.1054 376.2163,-153.9975 380,-152.7 380,-152.7 380,-152.7 376.2163,-153.9975 378.8323,-149.2946 372.4326,-155.295 372.4326,-155.295"/>
<ellipse fill="none" stroke="#000000" cx="369.4056" cy="-156.333" rx="3.2" ry="3.2"/>
</g>
<!-- tag -->
<g id="node4" class="node">
<title>tag</title>
<g id="a_node4"><a xlink:href="../../tables/tag.html" xlink:title="tag" target="_top">
<polygon fill="#ffffff" stroke="transparent" points="194,-38.2 194,-99.2 265,-99.2 265,-38.2 194,-38.2"/>
<polygon fill="#f5f5f5" stroke="transparent" points="194.5,-75.7 194.5,-98.7 265.5,-98.7 265.5,-75.7 194.5,-75.7"/>
<polygon fill="none" stroke="#000000" points="194.5,-75.7 194.5,-98.7 265.5,-98.7 265.5,-75.7 194.5,-75.7"/>
<text text-anchor="start" x="199.5" y="-84.8" font-family="Helvetica,sans-Serif" font-weight="bold" font-size="11.00" fill="#000000">tag</text>
<text text-anchor="start" x="230.5437" y="-83.8" font-family="Helvetica,sans-Serif" font-size="11.00" fill="#000000">[table]</text>
<polygon fill="none" stroke="#000000" points="194.5,-56.7 194.5,-75.7 265.5,-75.7 265.5,-56.7 194.5,-56.7"/>
<text text-anchor="start" x="197.5" y="-62.8" font-family="Helvetica,sans-Serif" font-size="11.00" fill="#000000">...</text>
<polygon fill="#ffffff" stroke="transparent" points="194.5,-37.7 194.5,-56.7 206.5,-56.7 206.5,-37.7 194.5,-37.7"/>
<polygon fill="none" stroke="#000000" points="194.5,-37.7 194.5,-56.7 206.5,-56.7 206.5,-37.7 194.5,-37.7"/>
<text text-anchor="start" x="197.4431" y="-43.8" font-family="Helvetica,sans-Serif" font-size="11.00" fill="#000000"> &#160;</text>
<polygon fill="#ffffff" stroke="transparent" points="206.5,-37.7 206.5,-56.7 244.5,-56.7 244.5,-37.7 206.5,-37.7"/>
<polygon fill="none" stroke="#000000" points="206.5,-37.7 206.5,-56.7 244.5,-56.7 244.5,-37.7 206.5,-37.7"/>
<text text-anchor="start" x="209.3053" y="-43.8" font-family="Helvetica,sans-Serif" font-size="11.00" fill="#000000">8 rows</text>
<polygon fill="#ffffff" stroke="transparent" points="244.5,-37.7 244.5,-56.7 265.5,-56.7 265.5,-37.7 244.5,-37.7"/>
<polygon fill="none" stroke="#000000" points="244.5,-37.7 244.5,-56.7 265.5,-56.7 265.5,-37.7 244.5,-37.7"/>
<text text-anchor="start" x="247.2027" y="-43.8" font-family="Helvetica,sans-Serif" font-size="11.00" fill="#000000">1 &gt;</text>
</a>
</g>
</g>
<!-- tasks_tag&#45;&gt;tag -->
<g id="edge2" class="edge">
<title>tasks_tag:w&#45;&gt;tag:e</title>
<path fill="none" stroke="#000000" d="M365.8003,-127.0191C335.1172,-113.2687 290.5298,-65.7 265.5,-65.7"/>
<polygon fill="#000000" stroke="#000000" points="372.256,-128.6925 379.0966,-134.1848 376.128,-129.6963 380,-130.7 380,-130.7 380,-130.7 376.128,-129.6963 380.9034,-127.2152 372.256,-128.6925 372.256,-128.6925"/>
<ellipse fill="none" stroke="#000000" cx="369.1583" cy="-127.8895" rx="3.2" ry="3.2"/>
</g>
</g>
</svg>
