<?xml version="1.0" encoding="UTF-8" standalone="no"?>
<!DOCTYPE svg PUBLIC "-//W3C//DTD SVG 1.1//EN"
 "http://www.w3.org/Graphics/SVG/1.1/DTD/svg11.dtd">
<!-- Generated by graphviz version 2.40.1 (20161225.0304)
 -->
<!-- Title: compactRelationshipsDiagram Pages: 1 -->
<svg width="415pt" height="259pt"
 viewBox="0.00 0.00 415.00 259.20" xmlns="http://www.w3.org/2000/svg" xmlns:xlink="http://www.w3.org/1999/xlink">
<g id="graph0" class="graph" transform="scale(1 1) rotate(0) translate(4 255.2)">
<title>compactRelationshipsDiagram</title>
<polygon fill="#ffffff" stroke="transparent" points="-4,4 -4,-255.2 411,-255.2 411,4 -4,4"/>
<text text-anchor="middle" x="72.4936" y="-7.3" font-family="Helvetica,sans-Serif" font-size="11.00" fill="#000000">Generated by SchemaSpy</text>
<!-- lists -->
<g id="node1" class="node">
<title>lists</title>
<g id="a_node1"><a xlink:href="../../tables/lists.html" xlink:title="lists" target="_top">
<polygon fill="#ffffff" stroke="transparent" points="8,-138.7 8,-224.7 79,-224.7 79,-138.7 8,-138.7"/>
<polygon fill="#f5f5f5" stroke="transparent" points="8.5,-201.7 8.5,-224.7 79.5,-224.7 79.5,-201.7 8.5,-201.7"/>
<polygon fill="none" stroke="#000000" points="8.5,-201.7 8.5,-224.7 79.5,-224.7 79.5,-201.7 8.5,-201.7"/>
<text text-anchor="start" x="13.5" y="-210.8" font-family="Helvetica,sans-Serif" font-weight="bold" font-size="11.00" fill="#000000">lists</text>
<text text-anchor="start" x="44.5437" y="-209.8" font-family="Helvetica,sans-Serif" font-size="11.00" fill="#000000">[table]</text>
<polygon fill="none" stroke="#000000" points="8.5,-179.7 8.5,-201.7 79.5,-201.7 79.5,-179.7 8.5,-179.7"/>
<image xlink:href="../../images/primaryKeys.png" width="11px" height="12px" preserveAspectRatio="xMinYMin meet" x="13.5" y="-196.7"/>
<text text-anchor="start" x="39.5" y="-186.8" font-family="Helvetica,sans-Serif" font-size="11.00" fill="#000000">id</text>
<polygon fill="#ffffff" stroke="transparent" points="8.5,-157.7 8.5,-179.7 79.5,-179.7 79.5,-157.7 8.5,-157.7"/>
<polygon fill="none" stroke="#000000" points="8.5,-157.7 8.5,-179.7 79.5,-179.7 79.5,-157.7 8.5,-157.7"/>
<text text-anchor="start" x="39.5" y="-164.8" font-family="Helvetica,sans-Serif" font-size="11.00" fill="#000000">title</text>
<polygon fill="#ffffff" stroke="transparent" points="8.5,-138.7 8.5,-157.7 20.5,-157.7 20.5,-138.7 8.5,-138.7"/>
<polygon fill="none" stroke="#000000" points="8.5,-138.7 8.5,-157.7 20.5,-157.7 20.5,-138.7 8.5,-138.7"/>
<text text-anchor="start" x="11.4431" y="-144.8" font-family="Helvetica,sans-Serif" font-size="11.00" fill="#000000"> &#160;</text>
<polygon fill="#ffffff" stroke="transparent" points="20.5,-138.7 20.5,-157.7 58.5,-157.7 58.5,-138.7 20.5,-138.7"/>
<polygon fill="none" stroke="#000000" points="20.5,-138.7 20.5,-157.7 58.5,-157.7 58.5,-138.7 20.5,-138.7"/>
<text text-anchor="start" x="23.3053" y="-144.8" font-family="Helvetica,sans-Serif" font-size="11.00" fill="#000000">3 rows</text>
<polygon fill="#ffffff" stroke="transparent" points="58.5,-138.7 58.5,-157.7 79.5,-157.7 79.5,-138.7 58.5,-138.7"/>
<polygon fill="none" stroke="#000000" points="58.5,-138.7 58.5,-157.7 79.5,-157.7 79.5,-138.7 58.5,-138.7"/>
<text text-anchor="start" x="61.2027" y="-144.8" font-family="Helvetica,sans-Serif" font-size="11.00" fill="#000000">1 &gt;</text>
</a>
</g>
</g>
<!-- tag -->
<g id="node2" class="node">
<title>tag</title>
<g id="a_node2"><a xlink:href="../../tables/tag.html" xlink:title="tag" target="_top">
<polygon fill="#ffffff" stroke="transparent" points="151,-38.2 151,-121.2 237,-121.2 237,-38.2 151,-38.2"/>
<polygon fill="#f5f5f5" stroke="transparent" points="151,-97.7 151,-120.7 237,-120.7 237,-97.7 151,-97.7"/>
<polygon fill="none" stroke="#000000" points="151,-97.7 151,-120.7 237,-120.7 237,-97.7 151,-97.7"/>
<text text-anchor="start" x="156" y="-106.8" font-family="Helvetica,sans-Serif" font-weight="bold" font-size="11.00" fill="#000000">tag</text>
<text text-anchor="start" x="202.0437" y="-105.8" font-family="Helvetica,sans-Serif" font-size="11.00" fill="#000000">[table]</text>
<polygon fill="none" stroke="#000000" points="151,-75.7 151,-97.7 237,-97.7 237,-75.7 151,-75.7"/>
<image xlink:href="../../images/primaryKeys.png" width="11px" height="12px" preserveAspectRatio="xMinYMin meet" x="156" y="-92.7"/>
<text text-anchor="start" x="171" y="-82.8" font-family="Helvetica,sans-Serif" font-size="11.00" fill="#000000">id</text>
<polygon fill="none" stroke="#000000" points="151,-56.7 151,-75.7 237,-75.7 237,-56.7 151,-56.7"/>
<text text-anchor="start" x="154" y="-62.8" font-family="Helvetica,sans-Serif" font-size="11.00" fill="#000000">...</text>
<polygon fill="#ffffff" stroke="transparent" points="151,-37.7 151,-56.7 170,-56.7 170,-37.7 151,-37.7"/>
<polygon fill="none" stroke="#000000" points="151,-37.7 151,-56.7 170,-56.7 170,-37.7 151,-37.7"/>
<text text-anchor="start" x="154" y="-43.8" font-family="Helvetica,sans-Serif" font-size="11.00" fill="#000000"> &#160;</text>
<polygon fill="#ffffff" stroke="transparent" points="170,-37.7 170,-56.7 212,-56.7 212,-37.7 170,-37.7"/>
<polygon fill="none" stroke="#000000" points="170,-37.7 170,-56.7 212,-56.7 212,-37.7 170,-37.7"/>
<text text-anchor="start" x="176.6105" y="-43.8" font-family="Helvetica,sans-Serif" font-size="11.00" fill="#000000">8 rows</text>
<polygon fill="#ffffff" stroke="transparent" points="212,-37.7 212,-56.7 237,-56.7 237,-37.7 212,-37.7"/>
<polygon fill="none" stroke="#000000" points="212,-37.7 212,-56.7 237,-56.7 237,-37.7 212,-37.7"/>
<text text-anchor="start" x="218.4053" y="-43.8" font-family="Helvetica,sans-Serif" font-size="11.00" fill="#000000">1 &gt;</text>
</a>
</g>
</g>
<!-- tasks -->
<g id="node3" class="node">
<title>tasks</title>
<g id="a_node3"><a xlink:href="../../tables/tasks.html" xlink:title="tasks" target="_top">
<polygon fill="#ffffff" stroke="transparent" points="128,-142.2 128,-247.2 260,-247.2 260,-142.2 128,-142.2"/>
<polygon fill="#f5f5f5" stroke="transparent" points="128,-223.7 128,-246.7 260,-246.7 260,-223.7 128,-223.7"/>
<polygon fill="none" stroke="#000000" points="128,-223.7 128,-246.7 260,-246.7 260,-223.7 128,-223.7"/>
<text text-anchor="start" x="133" y="-232.8" font-family="Helvetica,sans-Serif" font-weight="bold" font-size="11.00" fill="#000000">tasks</text>
<text text-anchor="start" x="225.0437" y="-231.8" font-family="Helvetica,sans-Serif" font-size="11.00" fill="#000000">[table]</text>
<polygon fill="none" stroke="#000000" points="128,-201.7 128,-223.7 260,-223.7 260,-201.7 128,-201.7"/>
<image xlink:href="../../images/primaryKeys.png" width="11px" height="12px" preserveAspectRatio="xMinYMin meet" x="133" y="-218.7"/>
<text text-anchor="start" x="148" y="-208.8" font-family="Helvetica,sans-Serif" font-size="11.00" fill="#000000">id</text>
<polygon fill="none" stroke="#000000" points="128,-179.7 128,-201.7 260,-201.7 260,-179.7 128,-179.7"/>
<image xlink:href="../../images/foreignKeys.png" width="11px" height="12px" preserveAspectRatio="xMinYMin meet" x="133" y="-196.7"/>
<text text-anchor="start" x="148" y="-186.8" font-family="Helvetica,sans-Serif" font-size="11.00" fill="#000000">list_id</text>
<polygon fill="none" stroke="#000000" points="128,-160.7 128,-179.7 260,-179.7 260,-160.7 128,-160.7"/>
<text text-anchor="start" x="131" y="-166.8" font-family="Helvetica,sans-Serif" font-size="11.00" fill="#000000">...</text>
<polygon fill="#ffffff" stroke="transparent" points="128,-141.7 128,-160.7 175,-160.7 175,-141.7 128,-141.7"/>
<polygon fill="none" stroke="#000000" points="128,-141.7 128,-160.7 175,-160.7 175,-141.7 128,-141.7"/>
<text text-anchor="start" x="131" y="-147.8" font-family="Helvetica,sans-Serif" font-size="11.00" fill="#000000">&lt; 1</text>
<polygon fill="#ffffff" stroke="transparent" points="175,-141.7 175,-160.7 226,-160.7 226,-141.7 175,-141.7"/>
<polygon fill="none" stroke="#000000" points="175,-141.7 175,-160.7 226,-160.7 226,-141.7 175,-141.7"/>
<text text-anchor="start" x="190.6105" y="-147.8" font-family="Helvetica,sans-Serif" font-size="11.00" fill="#000000">6 rows</text>
<polygon fill="#ffffff" stroke="transparent" points="226,-141.7 226,-160.7 260,-160.7 260,-141.7 226,-141.7"/>
<polygon fill="none" stroke="#000000" points="226,-141.7 226,-160.7 260,-160.7 260,-141.7 226,-141.7"/>
<text text-anchor="start" x="241.4053" y="-147.8" font-family="Helvetica,sans-Serif" font-size="11.00" fill="#000000">1 &gt;</text>
</a>
</g>
</g>
<!-- tasks&#45;&gt;lists -->
<g id="edge1" class="edge">
<title>tasks:w&#45;&gt;lists:e</title>
<path fill="none" stroke="#000000" d="M113.2829,-190.7C102.2886,-190.7 95.1615,-190.7 79.5,-190.7"/>
<polygon fill="#000000" stroke="#000000" points="120,-190.7001 128,-194.3 124,-190.7 128,-190.7 128,-190.7 128,-190.7 124,-190.7 128,-187.1 120,-190.7001 120,-190.7001"/>
<ellipse fill="none" stroke="#000000" cx="116.8" cy="-190.7001" rx="3.2" ry="3.2"/>
</g>
<!-- tasks_tag -->
<g id="node4" class="node">
<title>tasks_tag</title>
<g id="a_node4"><a xlink:href="../../tables/tasks_tag.html" xlink:title="tasks_tag" target="_top">
<polygon fill="#ffffff" stroke="transparent" points="309,-108.7 309,-194.7 399,-194.7 399,-108.7 309,-108.7"/>
<polygon fill="#f5f5f5" stroke="transparent" points="309,-171.7 309,-194.7 399,-194.7 399,-171.7 309,-171.7"/>
<polygon fill="none" stroke="#000000" points="309,-171.7 309,-194.7 399,-194.7 399,-171.7 309,-171.7"/>
<text text-anchor="start" x="313.9633" y="-180.8" font-family="Helvetica,sans-Serif" font-weight="bold" font-size="11.00" fill="#000000">tasks_tag</text>
<text text-anchor="start" x="364.5219" y="-179.8" font-family="Helvetica,sans-Serif" font-size="11.00" fill="#000000">[table]</text>
<polygon fill="none" stroke="#000000" points="309,-149.7 309,-171.7 399,-171.7 399,-149.7 309,-149.7"/>
<image xlink:href="../../images/primaryKeys.png" width="11px" height="12px" preserveAspectRatio="xMinYMin meet" x="314" y="-166.7"/>
<text text-anchor="start" x="332" y="-156.8" font-family="Helvetica,sans-Serif" font-size="11.00" fill="#000000">task_id</text>
<polygon fill="none" stroke="#000000" points="309,-127.7 309,-149.7 399,-149.7 399,-127.7 309,-127.7"/>
<image xlink:href="../../images/primaryKeys.png" width="11px" height="12px" preserveAspectRatio="xMinYMin meet" x="314" y="-144.7"/>
<text text-anchor="start" x="332" y="-134.8" font-family="Helvetica,sans-Serif" font-size="11.00" fill="#000000">tag_id</text>
<polygon fill="#ffffff" stroke="transparent" points="309,-108.7 309,-127.7 339,-127.7 339,-108.7 309,-108.7"/>
<polygon fill="none" stroke="#000000" points="309,-108.7 309,-127.7 339,-127.7 339,-108.7 309,-108.7"/>
<text text-anchor="start" x="312" y="-114.8" font-family="Helvetica,sans-Serif" font-size="11.00" fill="#000000">&lt; 2</text>
<polygon fill="#ffffff" stroke="transparent" points="339,-108.7 339,-127.7 382,-127.7 382,-108.7 339,-108.7"/>
<polygon fill="none" stroke="#000000" points="339,-108.7 339,-127.7 382,-127.7 382,-108.7 339,-108.7"/>
<text text-anchor="start" x="346.6105" y="-114.8" font-family="Helvetica,sans-Serif" font-size="11.00" fill="#000000">8 rows</text>
<polygon fill="#ffffff" stroke="transparent" points="382,-108.7 382,-127.7 399,-127.7 399,-108.7 382,-108.7"/>
<polygon fill="none" stroke="#000000" points="382,-108.7 382,-127.7 399,-127.7 399,-108.7 382,-108.7"/>
<text text-anchor="start" x="389.8862" y="-114.8" font-family="Helvetica,sans-Serif" font-size="11.00" fill="#000000"> &#160;</text>
</a>
</g>
</g>
<!-- tasks_tag&#45;&gt;tag -->
<g id="edge2" class="edge">
<title>tasks_tag:w&#45;&gt;tag:e</title>
<path fill="none" stroke="#000000" d="M294.843,-135.9043C270.5626,-125.1033 270.9222,-86.7 237,-86.7"/>
<polygon fill="#000000" stroke="#000000" points="301.1516,-137.15 308.3025,-142.2318 305.0758,-137.925 309,-138.7 309,-138.7 309,-138.7 305.0758,-137.925 309.6975,-135.1682 301.1516,-137.15 301.1516,-137.15"/>
<ellipse fill="none" stroke="#000000" cx="298.0122" cy="-136.5301" rx="3.2" ry="3.2"/>
</g>
<!-- tasks_tag&#45;&gt;tasks -->
<g id="edge3" class="edge">
<title>tasks_tag:w&#45;&gt;tasks:e</title>
<path fill="none" stroke="#000000" d="M295.4073,-165.4988C281.0597,-178.3719 285.8011,-212.7 260,-212.7"/>
<polygon fill="#000000" stroke="#000000" points="301.4563,-163.3633 310.1985,-164.0947 305.2282,-162.0316 309,-160.7 309,-160.7 309,-160.7 305.2282,-162.0316 307.8015,-157.3053 301.4563,-163.3633 301.4563,-163.3633"/>
<ellipse fill="none" stroke="#000000" cx="298.4388" cy="-164.4286" rx="3.2" ry="3.2"/>
</g>
</g>
</svg>
