<?xml version="1.0" encoding="UTF-8" standalone="no"?>
<!DOCTYPE svg PUBLIC "-//W3C//DTD SVG 1.1//EN"
 "http://www.w3.org/Graphics/SVG/1.1/DTD/svg11.dtd">
<!-- Generated by graphviz version 2.40.1 (20161225.0304)
 -->
<!-- Title: largeRelationshipsDiagram Pages: 1 -->
<svg width="415pt" height="287pt"
 viewBox="0.00 0.00 415.00 287.20" xmlns="http://www.w3.org/2000/svg" xmlns:xlink="http://www.w3.org/1999/xlink">
<g id="graph0" class="graph" transform="scale(1 1) rotate(0) translate(4 283.2)">
<title>largeRelationshipsDiagram</title>
<polygon fill="#ffffff" stroke="transparent" points="-4,4 -4,-283.2 411,-283.2 411,4 -4,4"/>
<text text-anchor="middle" x="72.4936" y="-7.3" font-family="Helvetica,sans-Serif" font-size="11.00" fill="#000000">Generated by SchemaSpy</text>
<!-- lists -->
<g id="node1" class="node">
<title>lists</title>
<g id="a_node1"><a xlink:href="../../tables/lists.html" xlink:title="lists" target="_top">
<polygon fill="#ffffff" stroke="transparent" points="8,-167.2 8,-253.2 79,-253.2 79,-167.2 8,-167.2"/>
<polygon fill="#f5f5f5" stroke="transparent" points="8.5,-230.2 8.5,-253.2 79.5,-253.2 79.5,-230.2 8.5,-230.2"/>
<polygon fill="none" stroke="#000000" points="8.5,-230.2 8.5,-253.2 79.5,-253.2 79.5,-230.2 8.5,-230.2"/>
<text text-anchor="start" x="13.5" y="-239.3" font-family="Helvetica,sans-Serif" font-weight="bold" font-size="11.00" fill="#000000">lists</text>
<text text-anchor="start" x="44.5437" y="-238.3" font-family="Helvetica,sans-Serif" font-size="11.00" fill="#000000">[table]</text>
<polygon fill="none" stroke="#000000" points="8.5,-208.2 8.5,-230.2 79.5,-230.2 79.5,-208.2 8.5,-208.2"/>
<image xlink:href="../../images/primaryKeys.png" width="11px" height="12px" preserveAspectRatio="xMinYMin meet" x="13.5" y="-225.2"/>
<text text-anchor="start" x="39.5" y="-215.3" font-family="Helvetica,sans-Serif" font-size="11.00" fill="#000000">id</text>
<polygon fill="#ffffff" stroke="transparent" points="8.5,-186.2 8.5,-208.2 79.5,-208.2 79.5,-186.2 8.5,-186.2"/>
<polygon fill="none" stroke="#000000" points="8.5,-186.2 8.5,-208.2 79.5,-208.2 79.5,-186.2 8.5,-186.2"/>
<text text-anchor="start" x="39.5" y="-193.3" font-family="Helvetica,sans-Serif" font-size="11.00" fill="#000000">title</text>
<polygon fill="#ffffff" stroke="transparent" points="8.5,-167.2 8.5,-186.2 20.5,-186.2 20.5,-167.2 8.5,-167.2"/>
<polygon fill="none" stroke="#000000" points="8.5,-167.2 8.5,-186.2 20.5,-186.2 20.5,-167.2 8.5,-167.2"/>
<text text-anchor="start" x="11.4431" y="-173.3" font-family="Helvetica,sans-Serif" font-size="11.00" fill="#000000"> &#160;</text>
<polygon fill="#ffffff" stroke="transparent" points="20.5,-167.2 20.5,-186.2 58.5,-186.2 58.5,-167.2 20.5,-167.2"/>
<polygon fill="none" stroke="#000000" points="20.5,-167.2 20.5,-186.2 58.5,-186.2 58.5,-167.2 20.5,-167.2"/>
<text text-anchor="start" x="23.3053" y="-173.3" font-family="Helvetica,sans-Serif" font-size="11.00" fill="#000000">3 rows</text>
<polygon fill="#ffffff" stroke="transparent" points="58.5,-167.2 58.5,-186.2 79.5,-186.2 79.5,-167.2 58.5,-167.2"/>
<polygon fill="none" stroke="#000000" points="58.5,-167.2 58.5,-186.2 79.5,-186.2 79.5,-167.2 58.5,-167.2"/>
<text text-anchor="start" x="61.2027" y="-173.3" font-family="Helvetica,sans-Serif" font-size="11.00" fill="#000000">1 &gt;</text>
</a>
</g>
</g>
<!-- tag -->
<g id="node2" class="node">
<title>tag</title>
<g id="a_node2"><a xlink:href="../../tables/tag.html" xlink:title="tag" target="_top">
<polygon fill="#ffffff" stroke="transparent" points="151,-38.2 151,-124.2 237,-124.2 237,-38.2 151,-38.2"/>
<polygon fill="#f5f5f5" stroke="transparent" points="151,-101.2 151,-124.2 237,-124.2 237,-101.2 151,-101.2"/>
<polygon fill="none" stroke="#000000" points="151,-101.2 151,-124.2 237,-124.2 237,-101.2 151,-101.2"/>
<text text-anchor="start" x="156" y="-110.3" font-family="Helvetica,sans-Serif" font-weight="bold" font-size="11.00" fill="#000000">tag</text>
<text text-anchor="start" x="202.0437" y="-109.3" font-family="Helvetica,sans-Serif" font-size="11.00" fill="#000000">[table]</text>
<polygon fill="none" stroke="#000000" points="151,-79.2 151,-101.2 237,-101.2 237,-79.2 151,-79.2"/>
<image xlink:href="../../images/primaryKeys.png" width="11px" height="12px" preserveAspectRatio="xMinYMin meet" x="156" y="-96.2"/>
<text text-anchor="start" x="171" y="-86.3" font-family="Helvetica,sans-Serif" font-size="11.00" fill="#000000">id</text>
<polygon fill="none" stroke="#000000" points="151,-57.2 151,-79.2 237,-79.2 237,-57.2 151,-57.2"/>
<text text-anchor="start" x="171" y="-64.3" font-family="Helvetica,sans-Serif" font-size="11.00" fill="#000000">tag_value</text>
<polygon fill="#ffffff" stroke="transparent" points="151,-38.2 151,-57.2 170,-57.2 170,-38.2 151,-38.2"/>
<polygon fill="none" stroke="#000000" points="151,-38.2 151,-57.2 170,-57.2 170,-38.2 151,-38.2"/>
<text text-anchor="start" x="154" y="-44.3" font-family="Helvetica,sans-Serif" font-size="11.00" fill="#000000"> &#160;</text>
<polygon fill="#ffffff" stroke="transparent" points="170,-38.2 170,-57.2 212,-57.2 212,-38.2 170,-38.2"/>
<polygon fill="none" stroke="#000000" points="170,-38.2 170,-57.2 212,-57.2 212,-38.2 170,-38.2"/>
<text text-anchor="start" x="176.6105" y="-44.3" font-family="Helvetica,sans-Serif" font-size="11.00" fill="#000000">8 rows</text>
<polygon fill="#ffffff" stroke="transparent" points="212,-38.2 212,-57.2 237,-57.2 237,-38.2 212,-38.2"/>
<polygon fill="none" stroke="#000000" points="212,-38.2 212,-57.2 237,-57.2 237,-38.2 212,-38.2"/>
<text text-anchor="start" x="218.4053" y="-44.3" font-family="Helvetica,sans-Serif" font-size="11.00" fill="#000000">1 &gt;</text>
</a>
</g>
</g>
<!-- tasks -->
<g id="node3" class="node">
<title>tasks</title>
<g id="a_node3"><a xlink:href="../../tables/tasks.html" xlink:title="tasks" target="_top">
<polygon fill="#ffffff" stroke="transparent" points="128,-145.2 128,-275.2 260,-275.2 260,-145.2 128,-145.2"/>
<polygon fill="#f5f5f5" stroke="transparent" points="128,-252.2 128,-275.2 260,-275.2 260,-252.2 128,-252.2"/>
<polygon fill="none" stroke="#000000" points="128,-252.2 128,-275.2 260,-275.2 260,-252.2 128,-252.2"/>
<text text-anchor="start" x="133" y="-261.3" font-family="Helvetica,sans-Serif" font-weight="bold" font-size="11.00" fill="#000000">tasks</text>
<text text-anchor="start" x="225.0437" y="-260.3" font-family="Helvetica,sans-Serif" font-size="11.00" fill="#000000">[table]</text>
<polygon fill="none" stroke="#000000" points="128,-230.2 128,-252.2 260,-252.2 260,-230.2 128,-230.2"/>
<image xlink:href="../../images/primaryKeys.png" width="11px" height="12px" preserveAspectRatio="xMinYMin meet" x="133" y="-247.2"/>
<text text-anchor="start" x="148" y="-237.3" font-family="Helvetica,sans-Serif" font-size="11.00" fill="#000000">id</text>
<polygon fill="none" stroke="#000000" points="128,-208.2 128,-230.2 260,-230.2 260,-208.2 128,-208.2"/>
<image xlink:href="../../images/foreignKeys.png" width="11px" height="12px" preserveAspectRatio="xMinYMin meet" x="133" y="-225.2"/>
<text text-anchor="start" x="148" y="-215.3" font-family="Helvetica,sans-Serif" font-size="11.00" fill="#000000">list_id</text>
<polygon fill="none" stroke="#000000" points="128,-186.2 128,-208.2 260,-208.2 260,-186.2 128,-186.2"/>
<text text-anchor="start" x="148" y="-193.3" font-family="Helvetica,sans-Serif" font-size="11.00" fill="#000000">task_title</text>
<polygon fill="none" stroke="#000000" points="128,-164.2 128,-186.2 260,-186.2 260,-164.2 128,-164.2"/>
<text text-anchor="start" x="148" y="-171.3" font-family="Helvetica,sans-Serif" font-size="11.00" fill="#000000">task_description</text>
<polygon fill="#ffffff" stroke="transparent" points="128,-145.2 128,-164.2 175,-164.2 175,-145.2 128,-145.2"/>
<polygon fill="none" stroke="#000000" points="128,-145.2 128,-164.2 175,-164.2 175,-145.2 128,-145.2"/>
<text text-anchor="start" x="131" y="-151.3" font-family="Helvetica,sans-Serif" font-size="11.00" fill="#000000">&lt; 1</text>
<polygon fill="#ffffff" stroke="transparent" points="175,-145.2 175,-164.2 226,-164.2 226,-145.2 175,-145.2"/>
<polygon fill="none" stroke="#000000" points="175,-145.2 175,-164.2 226,-164.2 226,-145.2 175,-145.2"/>
<text text-anchor="start" x="190.6105" y="-151.3" font-family="Helvetica,sans-Serif" font-size="11.00" fill="#000000">6 rows</text>
<polygon fill="#ffffff" stroke="transparent" points="226,-145.2 226,-164.2 260,-164.2 260,-145.2 226,-145.2"/>
<polygon fill="none" stroke="#000000" points="226,-145.2 226,-164.2 260,-164.2 260,-145.2 226,-145.2"/>
<text text-anchor="start" x="241.4053" y="-151.3" font-family="Helvetica,sans-Serif" font-size="11.00" fill="#000000">1 &gt;</text>
</a>
</g>
</g>
<!-- tasks&#45;&gt;lists -->
<g id="edge1" class="edge">
<title>tasks:w&#45;&gt;lists:e</title>
<path fill="none" stroke="#000000" d="M113.2829,-219.2C102.2886,-219.2 95.1615,-219.2 79.5,-219.2"/>
<polygon fill="#000000" stroke="#000000" points="120,-219.2001 128,-222.8 124,-219.2 128,-219.2 128,-219.2 128,-219.2 124,-219.2 128,-215.6 120,-219.2001 120,-219.2001"/>
<ellipse fill="none" stroke="#000000" cx="116.8" cy="-219.2001" rx="3.2" ry="3.2"/>
</g>
<!-- tasks_tag -->
<g id="node4" class="node">
<title>tasks_tag</title>
<g id="a_node4"><a xlink:href="../../tables/tasks_tag.html" xlink:title="tasks_tag" target="_top">
<polygon fill="#ffffff" stroke="transparent" points="309,-124.2 309,-210.2 399,-210.2 399,-124.2 309,-124.2"/>
<polygon fill="#f5f5f5" stroke="transparent" points="309,-187.2 309,-210.2 399,-210.2 399,-187.2 309,-187.2"/>
<polygon fill="none" stroke="#000000" points="309,-187.2 309,-210.2 399,-210.2 399,-187.2 309,-187.2"/>
<text text-anchor="start" x="313.9633" y="-196.3" font-family="Helvetica,sans-Serif" font-weight="bold" font-size="11.00" fill="#000000">tasks_tag</text>
<text text-anchor="start" x="364.5219" y="-195.3" font-family="Helvetica,sans-Serif" font-size="11.00" fill="#000000">[table]</text>
<polygon fill="none" stroke="#000000" points="309,-165.2 309,-187.2 399,-187.2 399,-165.2 309,-165.2"/>
<image xlink:href="../../images/primaryKeys.png" width="11px" height="12px" preserveAspectRatio="xMinYMin meet" x="314" y="-182.2"/>
<text text-anchor="start" x="332" y="-172.3" font-family="Helvetica,sans-Serif" font-size="11.00" fill="#000000">task_id</text>
<polygon fill="none" stroke="#000000" points="309,-143.2 309,-165.2 399,-165.2 399,-143.2 309,-143.2"/>
<image xlink:href="../../images/primaryKeys.png" width="11px" height="12px" preserveAspectRatio="xMinYMin meet" x="314" y="-160.2"/>
<text text-anchor="start" x="332" y="-150.3" font-family="Helvetica,sans-Serif" font-size="11.00" fill="#000000">tag_id</text>
<polygon fill="#ffffff" stroke="transparent" points="309,-124.2 309,-143.2 339,-143.2 339,-124.2 309,-124.2"/>
<polygon fill="none" stroke="#000000" points="309,-124.2 309,-143.2 339,-143.2 339,-124.2 309,-124.2"/>
<text text-anchor="start" x="312" y="-130.3" font-family="Helvetica,sans-Serif" font-size="11.00" fill="#000000">&lt; 2</text>
<polygon fill="#ffffff" stroke="transparent" points="339,-124.2 339,-143.2 382,-143.2 382,-124.2 339,-124.2"/>
<polygon fill="none" stroke="#000000" points="339,-124.2 339,-143.2 382,-143.2 382,-124.2 339,-124.2"/>
<text text-anchor="start" x="346.6105" y="-130.3" font-family="Helvetica,sans-Serif" font-size="11.00" fill="#000000">8 rows</text>
<polygon fill="#ffffff" stroke="transparent" points="382,-124.2 382,-143.2 399,-143.2 399,-124.2 382,-124.2"/>
<polygon fill="none" stroke="#000000" points="382,-124.2 382,-143.2 399,-143.2 399,-124.2 382,-124.2"/>
<text text-anchor="start" x="389.8862" y="-130.3" font-family="Helvetica,sans-Serif" font-size="11.00" fill="#000000"> &#160;</text>
</a>
</g>
</g>
<!-- tasks_tag&#45;&gt;tag -->
<g id="edge2" class="edge">
<title>tasks_tag:w&#45;&gt;tag:e</title>
<path fill="none" stroke="#000000" d="M294.6635,-151.1131C268.8101,-138.3289 274.1282,-90.2 237,-90.2"/>
<polygon fill="#000000" stroke="#000000" points="301.1792,-152.516 308.2422,-157.7193 305.0896,-153.358 309,-154.2 309,-154.2 309,-154.2 305.0896,-153.358 309.7578,-150.6807 301.1792,-152.516 301.1792,-152.516"/>
<ellipse fill="none" stroke="#000000" cx="298.0509" cy="-151.8425" rx="3.2" ry="3.2"/>
</g>
<!-- tasks_tag&#45;&gt;tasks -->
<g id="edge3" class="edge">
<title>tasks_tag:w&#45;&gt;tasks:e</title>
<path fill="none" stroke="#000000" d="M295.0173,-181.3004C279.092,-196.6236 289.9598,-241.2 260,-241.2"/>
<polygon fill="#000000" stroke="#000000" points="301.4844,-178.9415 310.2337,-179.582 305.2422,-177.5707 309,-176.2 309,-176.2 309,-176.2 305.2422,-177.5707 307.7663,-172.818 301.4844,-178.9415 301.4844,-178.9415"/>
<ellipse fill="none" stroke="#000000" cx="298.4781" cy="-180.0381" rx="3.2" ry="3.2"/>
</g>
</g>
</svg>
